<svg id="圖層_1" data-name="圖層 1" xmlns="http://www.w3.org/2000/svg" viewBox="0 0 226.77 226.77"><defs><style>.cls-1{fill:#fff;}</style></defs><title>email</title><path class="cls-1" d="M164.54,70.53H62.23A12.46,12.46,0,0,0,49.79,83V143.8a12.47,12.47,0,0,0,12.44,12.45H164.54A12.46,12.46,0,0,0,177,143.8V83A12.46,12.46,0,0,0,164.54,70.53Zm-.34,8.29-47.88,47.89a4.15,4.15,0,0,1-5.87,0L62.57,78.82ZM58.08,143.47V86.07l28.7,28.7ZM65.33,148l27.32-27.32,11.94,11.94a12.44,12.44,0,0,0,17.59,0l11.94-11.94L161.44,148Zm103.36-4.48L140,114.77l28.7-28.7v57.4Z"/></svg>