<svg id="圖層_1" data-name="圖層 1" xmlns="http://www.w3.org/2000/svg" viewBox="0 0 226.77 226.77"><defs><style>.cls-1{fill:#fff;}</style></defs><title>instagram</title><path class="cls-1" d="M113.41,80.72A32.64,32.64,0,1,0,146,113.36a32.64,32.64,0,0,0-32.63-32.64Zm0,53.82a21.18,21.18,0,1,1,21.18-21.18A21.18,21.18,0,0,1,113.41,134.54Z"/><path class="cls-1" d="M139.61,50.19c-11.7-.55-40.69-.52-52.4,0-10.29.48-19.37,3-26.69,10.28C48.29,72.71,49.85,89.19,49.85,113.36c0,24.74-1.37,40.84,10.67,52.89,12.28,12.27,29,10.67,52.89,10.67,24.5,0,33,0,41.63-3.34,11.78-4.58,20.67-15.11,21.54-34,.55-11.71.52-40.69,0-52.4-1.05-22.33-13-35.87-37-37Zm18.52,108c-8,8-19.14,7.31-44.88,7.31-26.49,0-37.12.39-44.87-7.39-8.93-8.88-7.32-23.16-7.32-44.79,0-29.29-3-50.37,26.38-51.88,6.76-.24,8.74-.32,25.74-.32l.24.16c28.24,0,50.4-3,51.73,26.43.3,6.7.37,8.72.37,25.68,0,26.2.49,36.89-7.39,44.8Z"/><circle class="cls-1" cx="147.34" cy="79.44" r="7.63"/></svg>