<svg id="圖層_2" data-name="圖層 2" xmlns="http://www.w3.org/2000/svg" viewBox="0 0 373.13 339.05"><defs><style>.cls-1{fill:#fff;}.cls-2{isolation:isolate;}.cls-3{fill:none;stroke:#fff;stroke-miterlimit:10;stroke-width:0.5px;}</style></defs><title>logo</title><path class="cls-1" d="M96.64,229.64c-21.55-1.34-41.08-8.19-55-19.27C26.8,198.56,19,182.87,19,165c0-16.37,7-32.28,19.7-44.79,10.8-10.64,25.57-18.56,41.77-22.41,3.63-17.88,14.81-34.33,31.69-46.51,18.43-13.26,42.3-20.63,67.22-20.63s48.72,7.3,67.13,20.55c15.86,11.45,26.79,26.78,31,43.45a104.14,104.14,0,0,1,18.9-1.72c52.78,0,95.72,39.54,95.72,88.14,0,23.93-13.11,38.55-29,53.87l-.9.88H340.36v20.08H100.2v-26m223.92,9.75v-3.85H226.19l-16.93-18.53v22.38Zm-131.1,0V199.5l-51.76-56.63-24.83,50.64v46.13Zm81.66-106L354.49,221c11.91-11.1,21.42-22.15,21.42-39.91,0-39.65-35.66-71.91-79.49-71.91a86.89,86.89,0,0,0-23.19,3.12l-9.17,2.53L263,105.32c-1.73-15.54-11-30.07-26-40.91-15.67-11.28-36.14-17.49-57.64-17.49s-42,6.23-57.71,17.55c-15.06,10.87-24.28,25.43-26,41L95,111.54l-6,1.06C57.82,118.09,35.2,140.13,35.2,165c0,24.33,21,42.83,53.81,47.55L134.4,120Zm56.56,85.94-64.33-70.45-107.42-10.4,73.88,80.82Z" transform="translate(-18.95 -30.64)"/><g class="cls-2"><path class="cls-1" d="M84.86,282.56v10.8H94.8v5.18H84.86V311l9.07,10.22v7.85l-9.07-10.22v25.27h-5.4V319.86L67.8,336.49v-9.43l11.66-16.64V298.54H69v-5.18H79.46v-10.8ZM128,329.43v9.43l-13.82-19.65v24.91h-5.4V319.64l-13.4,18.94v-9.15l13.4-18.94V298.54H98.25v-5.18h10.52v-10.8h5.4v10.8h12v5.18h-12v11.23Z" transform="translate(-18.95 -30.64)"/><path class="cls-1" d="M166.87,309.49h-20v34.63h-5.54V283.64h25.56Zm-20-20.6v5H161.4v-5Zm14.55,15.27v-5H146.85v5Zm-4.61,9.14h25.49v27.44H156.79Zm5.4,5.26v5.62h14.69v-5.62Zm14.69,17v-6.19H162.19v6.19Zm20.88-51.91v60.48h-5.54V309.49H171.55V283.64ZM177,288.89v5h15.2v-5Zm15.2,15.27v-5H177v5Z" transform="translate(-18.95 -30.64)"/><path class="cls-1" d="M211.72,327.77l10.09-27.86h6l-10.15,27.86Zm27.15,11V282.56h5.62v61.56H230.23v-5.4Zm22.47-38.81,10.22,28.23h-6.05l-10.22-28.23Z" transform="translate(-18.95 -30.64)"/><path class="cls-1" d="M308.35,296.74,296.54,289l-13.39,9.65v-6.55l13.18-9.5,12,7.92Zm-9.22,32.76v4l8.43-2.16v5.62l-24.27,6.19V337.5l10.52-2.67v-22h-10.3v-4.9h10.3v-6h-7.56V297h20.08v4.9h-7.2v6h10v4.9h-10v14.33l4.4-11.6h5.18l-5.26,14Zm-11.52-14.4h4.47v18.15h-4.47Zm20.45,13H344v5H308.06Zm.94,16.06,5.54-9.22h6.12l-5.47,9.22ZM323.47,297v-4.18H309.21v-4.9h14.26V282.2h5.11v5.68h14.26v4.9H328.58V297h9.94v29.16h-25V297Zm9.79,7.92v-3.17H318.72v3.17Zm-14.54,4.68v3.09h14.54v-3.09Zm0,11.73h14.54v-4H318.72Zm12.53,13.61h6.12l5.54,9.22h-6.19Z" transform="translate(-18.95 -30.64)"/></g><g class="cls-2"><path class="cls-3" d="M84.86,282.56v10.8H94.8v5.18H84.86V311l9.07,10.22v7.85l-9.07-10.22v25.27h-5.4V319.86L67.8,336.49v-9.43l11.66-16.64V298.54H69v-5.18H79.46v-10.8ZM128,329.43v9.43l-13.82-19.65v24.91h-5.4V319.64l-13.4,18.94v-9.15l13.4-18.94V298.54H98.25v-5.18h10.52v-10.8h5.4v10.8h12v5.18h-12v11.23Z" transform="translate(-18.95 -30.64)"/><path class="cls-3" d="M166.87,309.49h-20v34.63h-5.54V283.64h25.56Zm-20-20.6v5H161.4v-5Zm14.55,15.27v-5H146.85v5Zm-4.61,9.14h25.49v27.44H156.79Zm5.4,5.26v5.62h14.69v-5.62Zm14.69,17v-6.19H162.19v6.19Zm20.88-51.91v60.48h-5.54V309.49H171.55V283.64ZM177,288.89v5h15.2v-5Zm15.2,15.27v-5H177v5Z" transform="translate(-18.95 -30.64)"/><path class="cls-3" d="M211.72,327.77l10.09-27.86h6l-10.15,27.86Zm27.15,11V282.56h5.62v61.56H230.23v-5.4Zm22.47-38.81,10.22,28.23h-6.05l-10.22-28.23Z" transform="translate(-18.95 -30.64)"/><path class="cls-3" d="M308.35,296.74,296.54,289l-13.39,9.65v-6.55l13.18-9.5,12,7.92Zm-9.22,32.76v4l8.43-2.16v5.62l-24.27,6.19V337.5l10.52-2.67v-22h-10.3v-4.9h10.3v-6h-7.56V297h20.08v4.9h-7.2v6h10v4.9h-10v14.33l4.4-11.6h5.18l-5.26,14Zm-11.52-14.4h4.47v18.15h-4.47Zm20.45,13H344v5H308.06Zm.94,16.06,5.54-9.22h6.12l-5.47,9.22ZM323.47,297v-4.18H309.21v-4.9h14.26V282.2h5.11v5.68h14.26v4.9H328.58V297h9.94v29.16h-25V297Zm9.79,7.92v-3.17H318.72v3.17Zm-14.54,4.68v3.09h14.54v-3.09Zm0,11.73h14.54v-4H318.72Zm12.53,13.61h6.12l5.54,9.22h-6.19Z" transform="translate(-18.95 -30.64)"/></g><g class="cls-2"><path class="cls-1" d="M132.05,351.53H120.8v7.82h11v1.8h-11v8H119V349.73h13.1Z" transform="translate(-18.95 -30.64)"/><path class="cls-1" d="M134.88,358.42h13.78v10.77H134.88Zm1.85,9h10.08v-7.25H136.73Z" transform="translate(-18.95 -30.64)"/><path class="cls-1" d="M165.17,360.22H153.82v9H152V358.42h13.2Z" transform="translate(-18.95 -30.64)"/><path class="cls-1" d="M169.13,367.44h12.05v1.75h-13.9V358.42h13.78v6.65H169.13Zm10.08-7.25H169.13v3.1h10.08Z" transform="translate(-18.95 -30.64)"/><path class="cls-1" d="M198.08,360.19h-12v3.36h12v5.64H184.27v-1.75h12v-2.11h-12v-6.91h13.81Z" transform="translate(-18.95 -30.64)"/><path class="cls-1" d="M214,358.42v1.8h-6.51v9.21h-1.82v-9.21h-5v-1.8h5v-8.69h1.82v8.69Z" transform="translate(-18.95 -30.64)"/><path class="cls-1" d="M242.33,349.73h1.83l-3.44,19.46H225.58l-3.46-19.46H224l3.12,17.71h5.14V350H234v17.47h5.18Z" transform="translate(-18.95 -30.64)"/><path class="cls-1" d="M246.05,358.42h13.78v10.77H246.05Zm1.85,9H258v-7.25H247.9Z" transform="translate(-18.95 -30.64)"/><path class="cls-1" d="M276.34,360.22H265v9h-1.85V358.42h13.2Z" transform="translate(-18.95 -30.64)"/><path class="cls-1" d="M290.09,369.19,284,364.92l-3.67,2.57v1.7h-1.85V349.73h1.85v15.53l9.77-6.84h3.21l-7.7,5.37,7.7,5.4Z" transform="translate(-18.95 -30.64)"/></g><g class="cls-2"><path class="cls-3" d="M132.05,351.53H120.8v7.82h11v1.8h-11v8H119V349.73h13.1Z" transform="translate(-18.95 -30.64)"/><path class="cls-3" d="M134.88,358.42h13.78v10.77H134.88Zm1.85,9h10.08v-7.25H136.73Z" transform="translate(-18.95 -30.64)"/><path class="cls-3" d="M165.17,360.22H153.82v9H152V358.42h13.2Z" transform="translate(-18.95 -30.64)"/><path class="cls-3" d="M169.13,367.44h12.05v1.75h-13.9V358.42h13.78v6.65H169.13Zm10.08-7.25H169.13v3.1h10.08Z" transform="translate(-18.95 -30.64)"/><path class="cls-3" d="M198.08,360.19h-12v3.36h12v5.64H184.27v-1.75h12v-2.11h-12v-6.91h13.81Z" transform="translate(-18.95 -30.64)"/><path class="cls-3" d="M214,358.42v1.8h-6.51v9.21h-1.82v-9.21h-5v-1.8h5v-8.69h1.82v8.69Z" transform="translate(-18.95 -30.64)"/><path class="cls-3" d="M242.33,349.73h1.83l-3.44,19.46H225.58l-3.46-19.46H224l3.12,17.71h5.14V350H234v17.47h5.18Z" transform="translate(-18.95 -30.64)"/><path class="cls-3" d="M246.05,358.42h13.78v10.77H246.05Zm1.85,9H258v-7.25H247.9Z" transform="translate(-18.95 -30.64)"/><path class="cls-3" d="M276.34,360.22H265v9h-1.85V358.42h13.2Z" transform="translate(-18.95 -30.64)"/><path class="cls-3" d="M290.09,369.19,284,364.92l-3.67,2.57v1.7h-1.85V349.73h1.85v15.53l9.77-6.84h3.21l-7.7,5.37,7.7,5.4Z" transform="translate(-18.95 -30.64)"/></g></svg>