<svg id="圖層_1" data-name="圖層 1" xmlns="http://www.w3.org/2000/svg" viewBox="0 0 226.77 226.77"><defs><style>.cls-1{fill:#fff;}</style></defs><title>youtube</title><path class="cls-1" d="M170.26,78.78c-3.37-6-7-7.1-14.48-7.52s-26.16-.72-42.38-.72-35,.21-42.41.71-11.1,1.52-14.51,7.53-5.26,16.31-5.26,34.48v.06c0,18.09,1.79,28.48,5.26,34.41s7.07,7.09,14.5,7.59,26.17.69,42.42.69,34.94-.25,42.39-.68,11.11-1.59,14.48-7.59,5.28-16.33,5.28-34.42v-.06C175.55,95.09,173.78,84.77,170.26,78.78ZM97.85,136.59V90l38.85,23.31Z"/></svg>