<?xml version="1.0" standalone="no"?>
<!DOCTYPE svg PUBLIC "-//W3C//DTD SVG 20010904//EN"
 "http://www.w3.org/TR/2001/REC-SVG-20010904/DTD/svg10.dtd">
<svg version="1.0" xmlns="http://www.w3.org/2000/svg"
 width="512.000000pt" height="512.000000pt" viewBox="0 0 512.000000 512.000000"
 preserveAspectRatio="xMidYMid meet">
<metadata>
Created by potrace 1.14, written by Peter Selinger 2001-2017
</metadata>
<g transform="translate(0.000000,512.000000) scale(0.100000,-0.100000)"
fill="#000000" stroke="none">
<path d="M2220 4055 c0 -6 -21 -11 -47 -12 -118 -2 -203 -9 -203 -17 0 -4 -11
-6 -25 -4 -14 3 -25 1 -25 -4 0 -5 -10 -4 -21 3 -13 6 -19 7 -15 1 7 -12 -48
-27 -63 -18 -5 4 -11 2 -13 -3 -1 -6 -14 -12 -28 -14 -14 -2 -33 -7 -42 -11
-9 -4 -22 -4 -29 0 -8 4 -9 3 -5 -4 4 -7 1 -12 -6 -12 -7 0 -51 -16 -97 -35
-46 -19 -88 -32 -94 -28 -6 3 -7 2 -4 -4 4 -5 -6 -16 -21 -24 -15 -7 -44 -24
-65 -37 -21 -12 -43 -20 -49 -16 -6 4 -9 3 -6 -2 3 -5 0 -15 -8 -22 -8 -7 -14
-10 -14 -7 0 3 -16 -9 -36 -27 -20 -18 -43 -37 -52 -42 -10 -6 -25 -20 -36
-33 -10 -14 -25 -22 -33 -19 -8 3 -11 2 -8 -4 8 -13 -36 -61 -48 -53 -6 3 -7
2 -4 -4 4 -5 -2 -19 -12 -29 -10 -11 -26 -32 -35 -47 -10 -15 -23 -24 -29 -20
-6 3 -7 1 -3 -5 9 -15 -18 -55 -29 -44 -5 4 -5 1 0 -7 4 -7 3 -16 -3 -20 -6
-3 -12 -13 -14 -21 -2 -8 -9 -21 -16 -28 -7 -8 -10 -17 -7 -22 3 -4 -2 -10
-10 -14 -9 -3 -12 -12 -8 -22 4 -11 2 -15 -4 -11 -7 5 -9 0 -6 -11 2 -11 -2
-25 -10 -33 -7 -8 -12 -20 -9 -27 2 -6 0 -12 -5 -12 -6 0 -9 -10 -8 -22 1 -13
-5 -30 -15 -39 -15 -16 -75 -35 -92 -31 -5 1 -8 -2 -8 -7 0 -5 -11 -8 -25 -7
-13 2 -22 -1 -19 -5 5 -8 -17 -14 -38 -10 -5 0 -8 -3 -8 -7 0 -5 -24 -19 -52
-32 -29 -13 -70 -34 -90 -48 -21 -13 -42 -21 -49 -16 -7 4 -10 3 -6 -3 4 -6
-12 -23 -35 -39 -61 -43 -166 -134 -153 -134 3 0 -5 -10 -18 -22 -13 -13 -39
-45 -58 -73 -19 -27 -40 -56 -47 -63 -7 -8 -9 -19 -5 -25 4 -6 0 -8 -9 -4 -12
4 -14 1 -11 -13 3 -10 -2 -29 -10 -41 -7 -13 -20 -43 -27 -66 -7 -23 -16 -40
-20 -38 -4 2 -5 -7 -2 -21 3 -17 -2 -30 -14 -40 -11 -9 -13 -12 -5 -8 11 6 12
0 6 -32 -9 -46 -10 -165 -2 -211 3 -18 1 -35 -4 -39 -12 -7 -11 -24 2 -24 5 0
7 5 4 10 -3 6 -2 10 4 10 5 0 10 -8 9 -17 0 -28 12 -77 22 -87 5 -5 5 -17 -1
-28 -6 -11 -8 -22 -5 -26 3 -3 6 0 6 7 0 7 4 10 10 6 5 -3 6 -13 3 -22 -4 -10
-2 -14 4 -10 6 4 14 -4 17 -17 3 -14 13 -31 21 -39 8 -8 16 -21 17 -28 2 -8
13 -22 26 -32 12 -10 20 -22 17 -27 -3 -4 7 -15 20 -24 14 -9 23 -21 20 -25
-3 -5 2 -12 10 -15 18 -7 16 -26 -5 -44 -13 -11 -12 -12 5 -4 24 12 49 -8 34
-27 -6 -7 -5 -8 2 -2 6 5 19 7 28 4 9 -3 0 8 -19 25 -19 17 -32 31 -27 32 4 0
20 -11 35 -24 15 -14 37 -33 49 -44 13 -10 20 -22 16 -26 -3 -3 1 -6 10 -6 20
0 87 -41 87 -54 0 -5 -7 -3 -15 4 -10 9 -15 9 -15 1 0 -6 5 -11 11 -11 8 0 7
-6 -2 -17 -12 -16 -11 -16 8 0 11 10 23 15 25 10 3 -4 3 -2 2 5 -2 6 1 12 6
12 9 0 13 -18 13 -63 0 -10 2 -15 6 -12 3 4 6 10 6 13 0 4 4 13 9 21 7 10 6
12 -4 6 -8 -5 -11 -4 -6 3 4 6 13 9 22 5 10 -3 11 -9 5 -17 -6 -8 -6 -17 1
-26 8 -13 9 -12 5 2 -3 9 1 19 9 22 22 9 24 8 24 -11 0 -15 -2 -16 -10 -3 -5
8 -10 10 -10 4 0 -16 10 -23 26 -17 8 3 11 10 7 17 -3 6 3 3 15 -7 11 -11 26
-16 31 -12 6 3 11 2 11 -4 0 -5 9 -8 20 -6 11 2 18 0 15 -5 -3 -5 -14 -7 -25
-5 -11 2 -20 -1 -20 -6 0 -6 6 -9 13 -6 6 2 20 0 31 -5 12 -7 16 -7 12 0 -3 6
-1 14 5 18 8 5 9 3 5 -5 -6 -8 -2 -11 10 -9 13 2 19 -3 18 -14 -1 -10 1 -17 5
-16 3 0 9 -1 14 -2 4 -1 17 -3 30 -4 12 -1 21 -7 19 -14 -1 -7 2 -12 8 -12 5
0 10 5 10 11 0 5 4 7 10 4 6 -4 7 1 4 12 -5 15 -4 16 5 3 9 -12 12 -13 20 -1
6 9 11 10 15 2 4 -6 12 -9 17 -6 5 3 6 -2 2 -12 -5 -14 -3 -16 7 -6 11 10 16
9 27 -5 14 -16 14 -16 9 0 -7 24 9 31 25 11 12 -14 12 -16 -1 -8 -8 4 -12 5
-8 0 4 -4 3 -14 -3 -22 -7 -8 -8 -13 -1 -13 5 0 13 7 16 16 3 8 10 12 16 9 5
-3 7 0 5 7 -4 9 2 14 13 14 10 0 19 -6 20 -13 1 -7 3 -20 4 -28 1 -8 5 -15 10
-15 5 0 7 8 3 19 -3 11 0 21 8 24 17 6 44 -9 34 -20 -5 -4 -12 -1 -17 7 -6 8
-10 11 -10 5 0 -14 15 -36 26 -38 5 -1 8 -6 6 -12 -2 -5 2 -4 9 3 18 17 25 15
26 -10 2 -18 0 -20 -7 -8 -5 8 -10 10 -10 4 0 -5 5 -15 12 -22 9 -9 9 -12 0
-12 -7 0 -12 -5 -12 -11 0 -5 4 -8 9 -4 6 3 10 -12 9 -35 0 -22 -4 -43 -9 -46
-5 -3 -9 -11 -9 -17 0 -8 3 -8 9 1 5 9 8 2 9 -20 0 -18 -5 -36 -11 -40 -9 -6
-8 -8 2 -8 11 0 11 -3 0 -17 -10 -11 -10 -14 -1 -9 8 5 12 0 12 -13 0 -21 9
-25 44 -21 13 1 16 -2 10 -12 -6 -10 -4 -10 9 1 19 15 22 8 7 -19 -7 -13 -7
-21 2 -26 7 -5 8 -3 3 6 -6 10 -4 12 10 6 15 -5 16 -4 5 9 -11 13 -10 15 6 12
11 -1 24 -6 30 -9 6 -4 11 -1 11 7 0 7 -8 12 -18 10 -10 -2 -21 0 -24 5 -3 5
10 8 30 7 30 -2 34 -5 29 -22 -4 -16 -3 -17 5 -5 9 12 11 12 17 -3 3 -10 11
-14 18 -10 6 4 14 8 19 8 4 0 7 3 7 8 0 4 0 10 0 14 0 4 -5 2 -12 -5 -15 -15
-31 -16 -22 0 4 7 3 8 -4 4 -7 -4 -12 -3 -12 2 0 5 20 9 45 8 32 0 42 -3 34
-12 -7 -8 -1 -10 21 -8 23 3 29 0 24 -9 -6 -9 -5 -9 8 0 8 7 19 9 23 5 5 -4 5
-1 1 6 -4 7 -11 10 -16 7 -5 -3 -11 -1 -15 5 -4 6 4 9 19 8 24 -2 30 -10 27
-30 0 -5 3 -8 9 -8 5 0 10 5 10 10 0 13 32 9 42 -5 5 -6 8 -5 8 4 0 10 6 10
26 -4 15 -9 24 -12 20 -7 -3 6 -2 13 4 17 5 3 10 0 10 -7 0 -10 2 -10 8 -1 8
13 29 12 52 -2 13 -8 13 -7 1 8 -7 9 -17 15 -21 12 -5 -3 -12 0 -15 6 -15 23
41 3 57 -21 10 -14 18 -20 18 -13 0 13 18 12 39 -1 9 -6 12 -5 7 2 -3 6 -2 13
4 17 5 3 10 0 10 -7 0 -10 2 -10 8 -1 8 13 29 12 52 -2 13 -8 13 -7 1 8 -7 9
-17 15 -21 12 -5 -3 -12 0 -15 6 -15 23 41 3 57 -21 10 -14 18 -19 18 -12 0 7
5 10 10 7 6 -4 7 -12 4 -18 -4 -7 -3 -8 2 -4 5 5 9 14 9 20 0 5 6 12 14 15 9
3 11 0 5 -9 -6 -11 -5 -12 8 -2 8 7 19 9 23 5 5 -4 5 -1 1 6 -4 7 -11 10 -16
7 -5 -3 -11 -1 -15 5 -4 6 4 9 19 8 24 -2 30 -10 27 -30 0 -5 3 -8 9 -8 5 0
10 5 10 10 0 13 32 9 42 -5 5 -6 8 -5 8 3 0 7 5 10 10 7 6 -4 7 -12 3 -18 -3
-7 3 -4 14 6 11 9 23 14 28 10 4 -5 5 -2 1 5 -6 10 -11 10 -21 2 -9 -7 -15 -7
-19 -1 -4 5 -15 8 -26 6 -11 -2 -22 0 -24 4 -3 4 24 7 59 7 51 -1 61 -3 53
-14 -6 -7 -8 -15 -4 -19 3 -3 6 -1 6 5 0 7 5 12 11 12 5 0 8 -4 4 -9 -3 -5 0
-13 6 -17 7 -4 9 -3 5 4 -3 6 -2 13 4 17 5 3 10 0 10 -7 0 -8 3 -9 8 -3 12 17
34 16 48 -2 13 -17 14 -17 7 2 -6 17 -4 18 8 8 13 -10 16 -10 16 1 0 8 -8 13
-18 11 -10 -2 -21 0 -24 5 -3 5 10 8 30 7 30 -2 34 -5 29 -22 -4 -16 -3 -17 5
-5 9 12 11 12 17 -3 3 -10 11 -14 18 -10 6 4 14 8 19 8 4 0 7 3 7 8 0 4 0 10
0 14 0 4 -5 2 -12 -5 -15 -15 -31 -16 -22 0 4 7 3 8 -4 4 -7 -4 -12 -3 -12 2
0 5 20 9 45 8 32 0 42 -3 34 -12 -7 -8 -1 -10 21 -8 23 3 29 0 24 -9 -6 -9 -5
-9 8 0 8 7 19 9 23 5 5 -4 5 -1 1 6 -4 7 -11 10 -16 7 -5 -3 -11 -1 -15 5 -4
6 4 9 19 8 24 -2 30 -10 27 -30 0 -5 3 -8 9 -8 5 0 10 5 10 10 0 13 32 9 42
-5 5 -6 8 -5 8 3 0 7 5 10 10 7 6 -4 7 -12 3 -18 -3 -7 3 -4 14 6 11 9 23 14
28 10 4 -5 5 -2 1 5 -6 10 -11 10 -21 2 -9 -7 -15 -7 -19 -1 -4 5 -15 8 -26 6
-11 -2 -22 0 -24 4 -3 4 24 7 59 7 51 -1 61 -3 53 -14 -6 -7 -8 -15 -4 -19 3
-3 6 -1 6 5 0 7 5 12 11 12 5 0 8 -4 4 -9 -3 -5 0 -13 6 -17 7 -4 9 -3 5 4 -3
6 -2 13 4 17 5 3 10 0 10 -7 0 -8 3 -9 8 -3 10 14 42 18 42 5 0 -6 4 -9 9 -6
5 4 12 0 14 -6 4 -10 6 -10 6 0 1 7 6 10 13 6 7 -5 8 -3 3 6 -5 8 -3 11 6 8 8
-3 14 -10 14 -15 0 -6 4 -15 9 -20 5 -4 6 -3 2 4 -3 6 -2 14 4 18 6 4 8 11 5
16 -7 10 -6 10 43 14 24 2 31 0 23 -8 -14 -14 -14 -27 0 -27 5 0 8 4 5 9 -7
11 20 23 57 26 23 2 25 0 16 -11 -7 -8 -9 -17 -5 -21 3 -3 6 -1 6 5 0 7 5 12
11 12 5 0 8 -4 4 -9 -3 -5 0 -13 6 -17 7 -4 9 -3 5 4 -3 6 -2 13 4 17 5 3 10
0 10 -7 0 -8 3 -9 8 -3 11 15 42 18 42 4 0 -8 5 -7 13 4 17 23 68 41 61 22 -3
-7 -11 -12 -18 -9 -14 6 -42 -23 -32 -33 3 -3 6 -1 6 6 0 7 5 9 12 5 7 -5 8
-3 3 6 -5 8 -3 11 6 8 8 -3 13 -11 11 -18 -3 -11 0 -11 12 -1 9 7 13 17 10 22
-6 10 -5 10 44 14 27 2 31 0 21 -11 -8 -10 -15 -11 -24 -4 -13 11 -25 4 -25
-14 0 -6 5 -4 10 4 6 9 10 10 10 3 0 -6 9 -11 19 -10 11 0 18 4 15 8 -5 9 24
22 59 24 23 2 25 0 16 -11 -7 -8 -9 -17 -5 -21 3 -3 6 -1 6 5 0 7 5 12 11 12
5 0 8 -4 4 -9 -3 -5 0 -13 6 -17 7 -4 9 -3 5 4 -3 6 -2 13 4 17 5 3 10 0 10
-7 0 -8 3 -9 8 -3 10 14 42 18 42 5 0 -6 4 -9 9 -6 5 4 12 0 14 -6 4 -10 6
-10 6 0 1 7 6 10 13 6 7 -5 8 -3 3 6 -5 8 -3 11 6 8 8 -3 14 -10 14 -15 0 -6
4 -15 9 -20 5 -4 6 -3 2 4 -3 6 -2 14 4 18 6 4 8 11 5 16 -7 10 -6 10 43 14
24 2 31 0 23 -8 -14 -14 -14 -27 0 -27 5 0 8 4 5 9 -7 11 20 23 57 26 23 2 25
0 16 -11 -7 -8 -9 -17 -5 -21 3 -3 6 -1 6 5 0 7 5 12 11 12 5 0 8 -4 4 -9 -3
-5 0 -13 6 -17 7 -4 9 -3 5 4 -3 6 -2 13 4 17 5 3 10 0 10 -7 0 -8 3 -9 8 -3
11 15 42 18 42 4 0 -8 5 -7 13 4 17 23 68 41 61 22 -3 -7 -11 -12 -18 -9 -14
6 -42 -23 -32 -33 3 -3 6 -1 6 6 0 7 5 9 12 5 7 -5 8 -3 3 6 -5 8 -3 11 6 8 8
-3 13 -11 11 -18 -3 -11 0 -11 12 -1 9 7 13 17 10 22 -6 10 -5 10 44 14 27 2
31 0 21 -11 -8 -10 -15 -11 -24 -4 -13 11 -25 4 -25 -14 0 -6 5 -4 10 4 6 9
10 10 10 3 0 -6 9 -11 19 -10 11 0 18 4 15 8 -2 3 7 7 21 7 16 0 22 -5 18 -12
-4 -7 -1 -6 9 1 8 7 19 9 23 5 5 -4 5 -1 1 6 -4 7 -11 10 -16 7 -5 -3 -11 -1
-15 5 -4 6 4 9 19 8 24 -2 30 -10 27 -30 0 -5 3 -8 9 -8 5 0 10 5 10 10 0 13
32 9 42 -5 5 -6 8 -5 8 3 0 7 5 10 10 7 6 -4 7 -12 3 -18 -3 -7 3 -4 14 6 11
9 23 14 28 10 4 -5 5 -2 1 5 -6 10 -11 10 -21 2 -9 -7 -15 -7 -19 -1 -4 5 -15
8 -26 6 -11 -2 -22 0 -24 4 -3 4 24 7 59 7 51 -1 61 -3 53 -14 -6 -7 -8 -15
-4 -19 3 -3 6 -1 6 5 0 7 5 12 11 12 5 0 8 -4 4 -9 -3 -5 0 -13 6 -17 7 -4 9
-3 5 4 -3 6 -2 13 4 17 5 3 10 0 10 -7 0 -8 3 -9 8 -3 11 16 34 17 44 3 6 -11
10 -10 17 1 5 8 14 10 21 6 9 -5 11 -4 6 4 -4 6 -16 9 -26 6 -10 -3 -22 -1
-26 6 -4 7 -2 10 7 7 8 -3 24 -1 36 3 15 6 22 5 20 -3 -1 -6 4 -13 12 -16 8
-2 11 -1 8 4 -3 5 7 10 21 11 l27 1 -23 -18 c-12 -10 -22 -21 -22 -25 0 -4 6
-2 13 4 8 6 18 7 22 3 5 -4 4 -1 0 7 -6 11 -4 13 8 8 9 -3 19 -2 23 4 4 6 12
6 22 -3 14 -10 15 -10 5 2 -20 22 -15 33 12 28 20 -4 23 -2 15 8 -6 7 -9 31
-7 54 2 22 0 43 -5 46 -5 3 -5 11 -1 17 5 7 9 37 8 68 -1 32 3 56 10 56 5 0
15 2 20 3 22 5 36 0 29 -12 -5 -9 -2 -8 9 1 20 16 64 20 89 9 9 -5 19 -4 22 1
3 5 23 7 43 6 43 -2 96 13 88 25 -3 5 -1 11 4 14 5 4 13 1 17 -5 5 -8 3 -9 -6
-4 -9 5 -11 4 -6 -4 10 -16 27 -3 24 17 -2 10 3 16 11 14 8 -2 11 3 8 11 -6
16 39 54 88 75 20 8 22 11 8 8 -13 -2 -23 0 -23 5 0 5 8 9 18 10 9 0 12 3 5 5
-8 4 -6 11 8 25 22 22 37 26 19 4 -6 -8 -10 -20 -7 -27 4 -8 6 -7 6 5 1 9 6
17 12 17 6 0 8 9 4 20 -6 20 9 28 20 10 3 -5 12 -10 18 -10 8 0 7 3 -2 9 -7 5
-10 14 -7 20 4 6 11 9 16 6 5 -3 7 6 4 19 -3 16 8 45 31 83 19 32 40 73 46 91
7 20 15 30 22 25 7 -4 5 1 -3 12 -14 17 -13 17 10 11 21 -6 22 -5 7 4 -9 6
-15 16 -12 21 4 5 10 7 15 4 5 -3 12 -1 15 5 4 6 1 9 -5 8 -7 -2 -14 5 -15 15
-2 12 1 17 10 13 13 -5 15 10 3 29 -5 8 -3 60 2 60 1 0 3 16 4 35 1 23 6 34
14 32 8 -1 11 2 7 8 -3 6 -11 8 -16 5 -14 -9 -11 19 4 34 10 11 9 12 -1 6 -11
-6 -12 1 -8 29 4 24 2 36 -6 36 -9 0 -9 3 0 12 7 7 12 17 12 23 0 5 -5 3 -10
-5 -8 -12 -10 -8 -11 15 -3 71 -4 80 -11 85 -4 3 -8 17 -10 32 -2 15 -7 30
-11 34 -4 4 -7 17 -7 29 0 12 -3 25 -7 29 -14 14 -42 99 -36 109 3 6 1 7 -4 4
-13 -8 -26 20 -16 36 3 7 3 9 -2 5 -10 -10 -48 50 -39 63 3 5 2 8 -3 7 -4 -2
-9 0 -10 5 -3 9 -23 34 -45 55 -10 9 -18 20 -18 24 0 15 -146 168 -154 161 -2
-2 -7 5 -11 16 -3 12 -11 19 -16 16 -5 -4 -12 1 -15 9 -3 9 -10 14 -14 11 -4
-3 -10 2 -14 10 -3 8 -10 15 -16 15 -17 0 -40 26 -32 35 4 5 1 5 -7 0 -7 -4
-16 -4 -20 1 -7 11 -33 27 -78 50 -18 9 -31 19 -29 23 2 3 -8 7 -22 8 -15 0
-28 6 -30 12 -2 6 -12 11 -22 11 -10 0 -22 5 -25 10 -3 6 -15 10 -26 10 -11 0
-18 4 -15 8 2 4 -3 8 -12 8 -9 1 -57 13 -107 28 -84 25 -128 34 -200 41 -16 2
-30 4 -30 5 0 1 -34 3 -75 4 -41 1 -81 6 -89 10 -9 6 -12 5 -8 -1 4 -6 -18 -9
-59 -9 -36 1 -68 -2 -70 -5 -2 -4 -23 -6 -46 -5 -34 1 -43 5 -42 19 1 9 -2 17
-7 17 -5 0 -9 7 -9 15 0 9 -7 30 -16 46 -12 24 -13 33 -3 45 10 12 10 15 -2
12 -8 -2 -13 3 -12 9 2 7 0 12 -5 12 -19 -3 -25 2 -12 11 13 8 12 10 -4 10
-11 0 -17 3 -13 6 3 3 -3 15 -14 27 -10 11 -19 27 -19 34 0 7 -4 13 -8 13 -5
0 -15 12 -23 27 -8 15 -24 37 -37 50 -13 13 -20 28 -16 36 4 6 4 9 0 5 -11 -9
-46 23 -39 35 3 6 2 7 -4 4 -6 -4 -22 6 -36 21 -39 42 -86 82 -96 82 -5 0 -11
3 -13 8 -6 13 -110 78 -198 123 -102 52 -208 93 -270 105 -14 2 -32 7 -40 11
-22 9 -27 10 -56 12 -17 1 -23 5 -18 14 6 9 5 9 -8 0 -8 -7 -17 -10 -20 -7
-11 10 -132 26 -213 27 -33 1 -63 6 -67 12 -5 7 -8 7 -8 0z m-63 -263 c-10
-13 -9 -14 3 -7 8 6 19 10 24 10 5 0 11 7 13 15 4 12 3 12 -5 2 -8 -11 -10
-11 -15 1 -4 12 0 14 16 11 47 -11 52 -11 59 -1 3 6 16 -5 27 -24 12 -19 21
-29 21 -22 0 6 10 9 23 7 20 -4 20 -4 2 5 -11 4 -23 7 -27 4 -5 -2 -8 3 -8 11
0 13 5 14 26 5 25 -9 26 -8 13 8 -10 14 -10 15 0 6 7 -6 19 -9 26 -7 22 9 30
-18 10 -33 -11 -7 -14 -13 -8 -13 7 0 15 5 18 10 9 14 27 1 19 -13 -4 -7 -1
-6 7 2 11 10 11 15 2 18 -23 8 -14 18 17 19 17 1 30 -3 30 -8 0 -5 5 -6 12 -2
7 4 8 3 4 -4 -4 -7 -3 -12 3 -12 5 0 13 5 16 10 5 8 11 7 20 0 8 -7 19 -8 26
-4 7 4 10 2 7 -7 -3 -8 -11 -13 -17 -12 -6 2 -11 -2 -11 -7 0 -14 13 -13 28 2
14 14 64 19 56 6 -3 -4 -11 -5 -17 -2 -7 4 -9 4 -5 0 3 -4 8 -6 11 -4 2 2 11
-3 21 -11 14 -12 16 -12 13 0 -2 8 -2 11 0 7 2 -4 12 -4 21 -1 11 3 13 2 6 -4
-15 -11 -13 -40 3 -40 9 0 10 4 2 14 -6 7 -8 13 -3 14 5 0 17 2 27 4 18 3 50
-32 41 -46 -5 -8 14 -22 34 -25 6 -1 9 2 6 8 -4 6 -1 9 7 6 8 -3 14 -11 14
-18 0 -16 43 -21 52 -7 4 6 1 7 -7 2 -9 -6 -11 -4 -5 5 6 9 4 11 -4 6 -7 -5
-20 -1 -29 6 -24 21 -43 31 -40 21 2 -4 -1 -9 -7 -10 -10 -3 -15 15 -8 29 2 4
21 -3 42 -17 22 -13 41 -22 43 -19 3 2 11 -2 17 -10 7 -8 20 -13 29 -10 9 2 7
-1 -5 -7 -23 -12 -32 -39 -13 -39 6 0 9 5 8 12 -4 19 30 21 48 4 8 -9 20 -13
26 -10 7 5 8 2 2 -7 -12 -20 -14 -40 -3 -33 5 3 7 10 4 15 -4 5 1 9 10 9 11 0
15 -5 12 -15 -4 -8 -2 -17 4 -20 5 -4 7 -10 5 -14 -3 -4 4 -8 15 -8 10 -1 19
3 19 8 0 6 -4 7 -10 4 -5 -3 -7 0 -4 9 5 12 9 13 19 3 7 -7 11 -15 8 -19 -4
-7 10 -12 28 -10 3 1 6 -6 6 -14 0 -17 -3 -17 -26 -5 -13 7 -18 6 -18 -4 0 -7
7 -11 15 -7 11 4 13 2 7 -9 -6 -9 0 -8 19 5 16 10 26 14 23 8 -4 -5 5 -14 19
-21 20 -9 24 -16 18 -34 -6 -20 -5 -21 12 -7 10 8 16 10 12 6 -5 -5 1 -16 12
-23 11 -8 20 -20 19 -26 -3 -26 2 -37 24 -48 l22 -11 -23 22 c-13 12 -21 24
-18 27 3 3 16 -8 30 -23 19 -22 21 -30 10 -32 -20 -5 -17 -20 4 -18 20 1 94
-138 88 -166 -2 -10 0 -18 6 -18 5 0 6 -5 3 -10 -5 -8 -12 -7 -22 2 -15 12
-15 11 -2 -9 9 -15 16 -19 21 -10 13 21 20 -1 8 -23 -8 -15 -8 -20 -1 -16 7 5
11 -3 12 -21 1 -15 3 -39 5 -53 9 -59 9 -65 -4 -62 -8 1 -11 -2 -7 -8 3 -6 10
-8 15 -5 5 3 11 1 15 -5 4 -6 16 -3 33 7 26 17 26 17 13 0 -12 -15 -12 -17 4
-11 11 5 16 4 12 -3 -3 -5 0 -10 8 -10 8 0 12 4 9 8 -2 4 0 10 6 14 6 4 7 11
4 17 -5 7 -2 8 5 4 7 -5 10 -15 7 -23 -3 -8 -1 -11 4 -8 6 3 10 13 10 20 0 9
6 12 17 8 11 -4 14 -3 9 5 -10 16 2 15 19 -2 8 -7 11 -17 7 -22 -4 -5 1 -2 10
5 9 7 21 10 26 7 5 -3 9 1 9 9 0 17 -13 20 -22 5 -4 -6 -11 -7 -17 -4 -14 9 9
21 51 29 37 6 74 -2 66 -15 -3 -4 3 -14 13 -21 15 -12 16 -12 5 2 -14 18 -6
32 11 22 17 -11 36 -12 36 -3 0 5 9 7 20 5 11 -2 20 0 20 6 0 10 -41 5 -61 -7
-7 -4 -9 -3 -5 4 4 7 -1 10 -14 7 -11 -2 -22 0 -25 5 -3 4 11 6 30 4 22 -2 35
1 35 9 0 8 3 8 8 2 10 -14 42 -15 42 -1 0 6 5 4 10 -4 9 -13 11 -13 20 0 5 9
10 10 10 3 0 -12 24 -12 36 0 4 3 19 0 35 -8 34 -18 43 -19 33 -3 -4 7 -3 8 5
4 6 -4 9 -17 6 -29 -2 -12 -2 -16 1 -9 3 6 10 12 15 12 6 0 7 -6 3 -12 -4 -8
-2 -8 7 1 11 10 11 15 2 18 -7 3 -13 9 -13 14 0 6 7 6 19 0 10 -6 22 -7 27 -3
5 4 3 0 -4 -9 -11 -14 -9 -16 13 -11 14 2 22 9 19 14 -4 6 2 6 13 -1 11 -6 24
-7 28 -3 5 4 5 2 1 -5 -4 -7 0 -12 11 -12 32 -1 62 -7 69 -14 4 -4 17 -7 28
-8 12 0 15 -3 9 -6 -16 -6 -17 -33 -2 -33 5 0 8 4 5 9 -3 5 1 12 10 15 9 3 12
2 9 -5 -4 -6 -1 -10 6 -8 35 4 41 -1 34 -28 -6 -27 -6 -27 8 -8 9 11 13 24 9
30 -3 5 1 4 10 -2 8 -7 18 -10 21 -7 4 4 5 -2 3 -12 -2 -11 1 -28 5 -39 9 -18
9 -18 5 3 -3 14 1 22 10 22 8 0 14 -9 14 -20 0 -22 15 -27 26 -8 4 6 3 8 -3 5
-5 -3 -10 1 -10 10 0 13 4 12 17 -5 10 -12 21 -18 24 -14 4 3 4 -1 1 -10 -5
-13 -1 -16 19 -14 17 2 26 -2 26 -11 0 -10 -7 -12 -22 -8 -20 5 -21 5 -5 -5
12 -8 22 -8 30 -1 9 7 22 2 44 -18 l32 -28 -22 -23 c-12 -13 -15 -19 -6 -12 9
7 20 8 24 4 5 -4 5 -1 1 6 -15 26 27 11 62 -23 20 -19 34 -35 30 -35 -4 0 -13
6 -20 13 -38 35 -61 51 -53 37 5 -8 19 -23 32 -33 13 -10 21 -22 18 -27 -3 -4
4 -6 16 -3 25 7 43 -15 27 -34 -6 -8 -8 -16 -4 -20 3 -3 6 -1 6 5 0 7 6 12 13
12 17 0 57 -62 57 -88 0 -12 4 -22 10 -22 5 0 7 8 4 18 -5 14 -4 14 4 2 6 -8
9 -17 6 -21 -2 -4 -1 -9 3 -11 5 -1 19 -25 32 -51 21 -41 23 -50 10 -58 -11
-8 -9 -9 7 -5 14 4 21 2 21 -8 0 -9 -4 -13 -9 -10 -4 3 -8 1 -8 -4 0 -6 7 -13
16 -16 8 -3 12 -10 9 -16 -3 -5 -2 -10 3 -10 9 0 10 -7 13 -55 1 -14 7 -25 13
-25 6 0 4 -5 -4 -10 -8 -5 -10 -10 -4 -10 7 0 14 -9 17 -21 4 -16 2 -19 -10
-15 -13 5 -14 4 -3 -8 6 -9 13 -38 15 -65 2 -28 6 -55 9 -60 3 -5 -1 -14 -9
-21 -8 -7 -15 -18 -15 -24 0 -6 5 -4 11 4 8 12 9 9 4 -10 -4 -14 -7 -33 -6
-43 0 -9 -3 -16 -7 -13 -4 2 -8 -8 -9 -22 -2 -44 -10 -67 -21 -65 -5 1 -7 -7
-4 -19 3 -14 1 -19 -6 -14 -8 5 -10 2 -6 -8 3 -9 1 -16 -5 -16 -6 0 -11 -7
-11 -15 0 -9 -6 -18 -14 -21 -9 -3 -12 -12 -9 -21 4 -11 2 -14 -5 -9 -7 4 -12
1 -12 -8 0 -8 -8 -21 -19 -28 -10 -7 -18 -15 -18 -18 1 -3 -26 -33 -59 -67
l-60 -63 -52 56 c-28 31 -49 61 -45 67 3 5 2 7 -4 4 -12 -8 -105 92 -97 104 3
5 1 8 -4 7 -14 -5 -84 70 -77 82 4 6 3 10 -2 9 -20 -3 -34 2 -28 11 3 5 -1 10
-9 10 -9 0 -16 6 -16 14 0 8 -7 17 -16 20 -8 3 -12 11 -9 16 4 6 1 9 -7 8 -8
-2 -12 6 -10 22 2 20 0 22 -8 10 -9 -13 -12 -13 -25 4 -8 10 -12 23 -8 29 3 6
2 7 -4 4 -12 -7 -75 58 -66 67 4 3 1 6 -6 6 -12 0 -41 23 -41 33 0 2 -26 31
-57 65 -32 33 -89 95 -128 138 -38 43 -83 90 -98 106 -15 15 -25 28 -22 28 3
0 -16 21 -42 46 -26 25 -47 50 -45 55 1 5 -5 9 -13 9 -14 0 -19 12 -16 33 0 4
-3 6 -8 5 -4 -2 -26 16 -48 38 -35 36 -48 42 -99 48 -73 9 -180 18 -216 19
-16 0 -28 4 -28 7 0 4 -12 5 -26 2 -20 -4 -25 -2 -19 8 6 9 3 10 -12 1 -11 -6
-23 -8 -26 -4 -4 3 -29 6 -57 6 -27 1 -50 4 -50 7 0 3 -19 5 -42 5 -59 1 -131
7 -142 13 -5 3 -41 6 -80 8 -39 1 -71 3 -71 4 0 1 -13 2 -165 14 -47 4 -96 9
-110 12 -14 3 -52 7 -85 10 -33 3 -78 7 -100 9 -22 2 -40 4 -40 5 0 1 -34 3
-75 6 -41 2 -88 6 -105 9 -35 7 -135 16 -182 17 -18 1 -33 4 -33 7 0 3 -29 6
-65 7 l-64 1 -67 -133 c-37 -73 -70 -131 -73 -130 -3 2 -7 -7 -7 -20 -1 -13
-10 -37 -20 -52 -10 -15 -19 -29 -19 -32 -1 -22 -29 -68 -38 -63 -5 3 -7 1 -4
-4 7 -11 -48 -139 -64 -149 -5 -3 -7 -10 -4 -15 4 -5 1 -9 -6 -9 -7 0 -9 -3
-6 -6 9 -10 -12 -46 -23 -39 -6 3 -7 0 -4 -8 3 -8 0 -18 -5 -22 -6 -3 -9 -11
-6 -16 4 -5 1 -9 -5 -9 -6 0 -8 -4 -5 -10 3 -5 1 -10 -5 -10 -6 0 -8 -4 -5
-10 3 -5 1 -10 -4 -10 -6 0 -10 -6 -9 -12 2 -7 -2 -12 -8 -11 -6 1 -10 -8 -10
-20 1 -12 -4 -21 -10 -20 -8 1 -10 -6 -6 -19 3 -14 1 -19 -6 -14 -8 5 -10 2
-6 -8 3 -9 1 -16 -5 -16 -6 0 -10 -3 -10 -7 4 -22 -3 -33 -18 -34 -11 0 -13
-3 -6 -6 9 -3 5 -19 -14 -56 -14 -29 -28 -54 -32 -57 -3 -3 -6 -12 -6 -20 0
-8 -5 -14 -12 -13 -7 2 -10 -3 -7 -11 3 -7 -2 -20 -10 -29 -8 -8 -13 -16 -11
-18 2 -3 -7 -24 -19 -49 -21 -41 -26 -45 -57 -43 -19 1 -52 7 -74 13 -62 17
-69 18 -83 19 -7 1 -10 5 -7 11 3 5 0 7 -9 4 -13 -5 -33 2 -116 39 -99 45
-246 159 -233 180 3 6 1 7 -5 3 -10 -6 -72 72 -72 92 0 6 -5 12 -11 14 -6 2
-12 15 -12 30 -1 14 -5 24 -8 22 -10 -6 -31 79 -34 137 -1 31 -5 61 -9 67 -3
6 -2 13 4 17 5 3 10 1 10 -4 0 -6 5 -11 11 -11 8 0 8 4 -1 15 -14 17 -21 65
-9 65 4 0 6 9 4 20 -2 11 0 20 5 20 5 0 8 8 8 18 -1 17 38 112 46 112 7 0 2
-23 -9 -40 -7 -13 -6 -13 7 -2 17 14 18 28 4 51 -7 10 -6 12 4 6 10 -6 12 -4
7 8 -4 11 -1 15 13 12 23 -4 36 10 19 21 -8 5 -9 3 -4 -6 5 -9 4 -11 -3 -6
-18 11 26 66 47 58 14 -5 14 -4 1 13 -14 17 -14 18 10 5 22 -11 23 -11 13 1
-16 20 0 44 22 35 16 -6 16 -4 4 11 -7 10 -10 15 -5 11 4 -3 20 7 36 23 17 18
30 25 32 18 3 -9 8 -9 24 0 15 10 15 11 1 7 -9 -3 -17 -3 -17 0 0 11 64 59 76
56 6 -1 15 5 18 14 6 15 8 15 28 -2 21 -19 21 -19 8 5 -7 15 -8 21 -1 17 6 -4
11 -2 11 4 0 6 4 9 9 5 5 -3 17 2 25 11 9 8 16 12 16 7 0 -5 -5 -14 -11 -20
-8 -8 -8 -13 0 -18 6 -3 11 -3 10 2 -3 13 12 43 22 43 4 0 6 -8 3 -17 -5 -17
-5 -17 6 0 6 9 8 21 5 26 -3 6 6 8 21 5 19 -3 24 -1 18 8 -4 7 -4 10 1 6 4 -4
14 -3 22 3 7 6 13 8 13 4 0 -4 11 0 24 9 15 9 27 12 31 6 3 -5 12 -7 20 -4 8
4 13 9 10 13 -2 4 12 7 31 6 19 -1 37 2 40 6 3 5 16 9 28 9 13 0 30 8 37 17 9
11 10 14 2 9 -10 -5 -12 7 -8 51 2 32 8 59 13 61 6 2 8 12 5 22 -3 11 -1 20 4
20 5 0 10 9 11 20 4 45 6 50 21 51 9 0 11 3 5 5 -7 3 -10 13 -7 24 5 20 29 34
43 25 5 -3 11 -1 14 4 4 5 -5 8 -18 7 -24 -3 -24 -2 -9 20 8 13 19 21 24 19 4
-3 6 4 4 16 -3 16 -1 18 9 10 10 -8 12 -5 12 12 -1 15 5 22 18 22 11 0 21 7
23 15 4 12 3 12 -5 1 -7 -9 -12 -10 -16 -2 -4 6 -2 11 3 11 6 0 11 7 11 15 0
8 7 15 15 15 8 0 15 -5 15 -11 0 -5 -5 -7 -12 -3 -7 4 -8 3 -4 -5 12 -18 27
-2 20 23 -3 15 1 27 13 37 16 13 17 12 5 -3 -11 -13 -11 -21 -2 -35 10 -15 11
-15 6 -1 -2 9 1 28 7 43 9 19 18 25 35 22 12 -2 25 0 28 5 3 4 10 6 15 3 5 -4
9 -1 9 5 0 6 -13 8 -32 5 -31 -5 -32 -4 -10 8 12 7 19 17 15 22 -4 5 -1 4 8
-3 13 -10 19 -9 30 5 13 16 12 17 -3 4 -10 -7 -18 -10 -18 -5 0 5 12 18 27 28
16 12 23 14 18 5 -5 -8 3 -2 18 14 28 29 38 32 53 17 8 -8 15 -6 23 4 9 11 9
16 0 22 -7 4 -9 3 -5 -4 3 -6 2 -13 -4 -17 -17 -11 -11 22 7 36 9 8 14 10 11
4 -3 -5 1 -17 10 -25 14 -13 15 -12 10 2 -8 19 18 33 26 15 3 -7 3 -2 1 9 -6
22 16 39 43 35 6 -1 12 2 12 7 0 6 8 13 18 16 10 4 6 -4 -11 -19 -16 -14 -33
-23 -38 -20 -5 4 -9 1 -9 -4 0 -17 15 -13 44 10 23 18 29 19 44 7 15 -12 16
-11 3 5 -22 27 6 42 34 19 19 -16 19 -16 6 1 -8 9 -11 21 -7 24 4 4 11 1 15
-6 7 -11 13 -11 27 -1 18 11 18 11 -1 6 -19 -6 -19 -6 -1 9 10 8 22 12 27 10
4 -3 10 -1 13 3 3 5 17 8 31 7 14 -2 25 1 25 5 0 5 9 7 20 5 11 -2 20 1 20 6
0 6 5 7 10 4 6 -4 19 -3 28 1 29 12 75 12 89 -1 6 -7 10 -15 8 -17 -3 -3 2 -5
10 -5 10 0 12 4 5 12 -5 7 -6 16 -2 20 4 5 1 5 -7 0 -9 -5 -12 -4 -7 3 10 17
26 15 26 -2 0 -8 6 -16 13 -19 16 -6 37 3 37 15 0 7 -5 6 -14 -1 -10 -9 -15
-8 -19 3 -4 11 -1 13 10 9 11 -4 14 -3 9 5 -6 9 -1 9 18 1 22 -10 24 -15 13
-27z m813 -208 c0 -8 -5 -12 -10 -9 -6 4 -8 11 -5 16 9 14 15 11 15 -7z m-915
-985 c6 -3 22 -5 37 -4 15 0 24 -3 22 -7 -3 -4 -1 -8 5 -8 5 0 13 5 16 10 5 8
11 8 19 1 7 -6 17 -7 21 -3 5 4 6 0 3 -9 -5 -13 -1 -15 19 -11 16 3 24 1 20
-5 -3 -5 0 -10 8 -10 8 0 12 4 9 8 -2 4 -1 9 3 12 5 2 1 2 -7 0 -12 -3 -12 -2
-3 8 10 10 15 9 27 0 8 -7 35 -11 60 -10 51 3 64 -4 47 -24 -9 -11 -8 -17 3
-26 11 -9 16 -9 22 0 4 7 3 9 -4 5 -6 -3 -13 -2 -16 3 -10 16 14 23 31 9 14
-11 13 -8 -1 15 -25 38 -14 34 29 -10 19 -21 33 -30 29 -20 -3 9 -11 17 -16
17 -6 0 -5 6 2 15 7 8 17 12 24 8 6 -4 29 -8 51 -9 22 -1 49 -5 59 -9 14 -6
17 -5 11 4 -6 10 -3 11 12 2 11 -6 23 -7 27 -4 6 7 10 -11 7 -37 -1 -10 1 -11
6 -4 4 6 16 10 26 8 11 -1 16 1 12 4 -4 4 -11 7 -16 7 -17 0 -14 18 4 21 9 1
15 -2 11 -7 -3 -5 4 -9 16 -9 13 0 19 4 14 12 -4 7 -3 8 5 4 6 -4 9 -11 6 -16
-3 -5 -1 -11 5 -15 5 -3 10 0 10 8 0 16 50 12 61 -5 3 -5 18 -11 32 -14 21 -3
27 0 27 13 0 15 2 15 16 -3 8 -10 12 -13 8 -5 -4 9 -3 12 4 7 6 -3 13 -2 17 4
4 6 11 7 17 4 9 -6 35 -11 86 -16 6 -1 12 -5 12 -10 0 -4 5 -8 11 -8 5 0 8 4
5 8 -3 5 1 9 9 9 8 0 17 -7 19 -14 3 -8 2 -12 -3 -9 -4 3 -16 -1 -26 -8 -14
-10 -15 -15 -5 -21 9 -5 11 -4 6 3 -7 12 1 15 37 15 13 0 15 3 7 12 -13 16 4
30 22 19 7 -5 27 -8 45 -7 19 0 30 -4 27 -9 -4 -6 2 -7 15 -3 13 4 21 2 21 -5
0 -6 -5 -8 -12 -4 -6 4 -8 3 -4 -4 7 -12 42 -8 61 8 10 9 19 9 32 0 16 -9 15
-10 -7 -5 -23 5 -23 5 -6 -6 16 -10 22 -9 33 7 7 10 13 13 13 6 0 -6 9 -9 20
-7 11 2 18 0 15 -5 -3 -5 -13 -7 -23 -5 -12 2 -18 -4 -19 -18 -2 -19 -1 -20 8
-5 5 9 16 15 23 12 8 -3 17 -1 20 5 9 14 36 2 36 -16 0 -8 5 -11 10 -8 6 3 10
1 10 -4 0 -18 -17 -12 -34 12 -16 22 -16 22 -4 -5 7 -17 19 -28 30 -28 11 0
26 -6 34 -14 16 -17 19 -30 4 -21 -5 3 -10 1 -10 -5 0 -7 7 -9 16 -6 8 3 23
-1 32 -10 15 -15 14 -16 -6 -10 -13 5 -22 3 -22 -3 0 -6 3 -10 8 -10 21 4 42
-2 42 -12 0 -5 -4 -7 -10 -4 -6 3 -7 -1 -4 -10 6 -14 8 -14 21 2 8 10 12 13 9
7 -3 -7 1 -14 9 -18 8 -3 15 -11 15 -17 0 -8 -4 -8 -15 1 -10 9 -15 9 -15 1 0
-11 13 -15 38 -12 8 1 16 -7 19 -18 3 -12 10 -18 16 -14 5 3 7 1 3 -5 -3 -6 3
-13 14 -17 11 -3 20 -11 20 -16 0 -6 -8 -6 -20 1 -14 7 -20 7 -20 0 0 -9 17
-14 48 -13 7 1 11 -1 9 -3 -3 -3 13 -22 35 -43 23 -23 35 -42 29 -46 -6 -3
-11 -12 -11 -18 0 -7 4 -6 10 3 14 23 94 -62 85 -92 -5 -20 -4 -21 5 -5 10 16
12 16 28 0 9 -9 17 -21 17 -27 1 -6 6 -10 13 -8 18 3 14 -16 -5 -27 -15 -8
-13 -10 12 -8 24 2 30 -2 31 -21 1 -12 5 -26 9 -30 5 -4 5 1 2 11 -4 9 -2 17
3 17 6 0 10 -9 10 -21 0 -14 5 -19 14 -16 8 3 20 -1 26 -9 7 -8 9 -14 4 -14
-4 0 1 -7 12 -15 18 -14 17 -14 -11 -4 -16 5 -26 7 -22 2 5 -4 23 -13 40 -19
26 -9 32 -16 30 -39 -2 -25 -1 -26 11 -10 13 18 14 17 26 -4 10 -19 9 -25 -1
-33 -10 -7 -9 -8 5 -4 24 8 66 -29 66 -58 0 -18 2 -19 11 -6 9 12 10 11 6 -7
-3 -14 -1 -20 7 -17 6 2 24 -9 40 -25 l28 -29 -31 3 c-18 1 -31 -2 -31 -9 0
-6 -4 -5 -9 3 -5 8 -11 9 -15 3 -6 -10 -48 -8 -65 3 -6 3 -11 3 -11 -2 0 -7
-54 -9 -70 -3 -3 1 -9 1 -15 0 -30 -7 -65 -5 -65 3 0 6 -5 6 -12 0 -14 -10
-128 -10 -144 0 -6 3 -16 2 -24 -3 -8 -5 -21 -6 -29 -2 -15 7 -44 7 -66 2 -24
-7 -41 -5 -47 5 -5 6 -8 5 -8 -4 0 -10 -3 -11 -14 -2 -8 7 -16 8 -19 4 -4 -7
-101 -9 -117 -3 -3 2 -9 1 -15 0 -29 -6 -55 -6 -55 0 0 6 -36 6 -50 0 -16 -7
-76 -3 -82 5 -5 7 -8 7 -8 0 0 -10 -90 -12 -106 -2 -6 3 -16 2 -24 -3 -9 -5
-19 -5 -27 2 -7 6 -13 7 -13 2 0 -5 -11 -9 -25 -9 -14 0 -25 5 -25 10 0 6 -5
3 -11 -5 -8 -11 -12 -12 -16 -2 -2 6 -9 9 -15 6 -10 -6 -15 -2 -158 155 -47
52 -100 109 -117 127 -18 18 -33 35 -33 38 0 2 -24 29 -52 59 -120 125 -168
178 -168 182 0 3 -13 18 -30 33 -16 16 -30 35 -30 41 0 7 -4 9 -10 6 -5 -3
-10 1 -10 9 0 9 -7 16 -16 16 -10 0 -14 5 -10 16 3 8 2 12 -4 9 -5 -3 -19 9
-30 27 -11 18 -20 29 -20 23 0 -5 -15 8 -34 30 -19 22 -32 43 -29 47 2 5 0 7
-6 6 -14 -4 -91 83 -84 95 3 6 2 7 -4 4 -6 -4 -22 7 -36 23 -23 25 -24 29 -9
33 13 4 12 5 -4 6 -11 0 -29 11 -40 23 -15 19 -16 20 -1 9 10 -8 17 -9 17 -3
0 6 -8 15 -17 21 -15 8 -12 9 12 7 17 -1 35 -4 40 -7z m160 -9 c-3 -5 -12 -10
-18 -10 -7 0 -6 4 3 10 19 12 23 12 15 0z m-490 -63 c0 -17 -6 -23 -22 -23
-12 0 -19 4 -17 8 3 5 9 6 14 3 4 -3 10 4 13 15 7 27 12 25 12 -3z m21 -30 c1
-12 3 -25 3 -28 1 -4 8 -10 17 -13 8 -3 12 -2 9 4 -9 15 8 11 30 -7 16 -13 17
-15 3 -10 -10 4 -18 2 -18 -3 0 -6 11 -10 25 -10 14 0 25 -3 25 -7 0 -5 18
-28 40 -51 22 -24 40 -49 40 -55 0 -6 -11 4 -25 23 -18 24 -25 29 -25 16 0
-10 -4 -14 -12 -10 -7 4 -8 3 -4 -4 4 -6 13 -9 21 -6 7 3 18 -4 25 -16 9 -16
15 -19 25 -10 10 8 15 8 21 -1 4 -8 3 -9 -4 -5 -7 4 -12 2 -12 -3 0 -6 7 -11
15 -11 8 0 15 -5 15 -11 0 -5 -5 -7 -12 -3 -7 4 -8 3 -4 -4 4 -6 14 -9 24 -6
14 5 13 2 -3 -11 -20 -17 -20 -17 2 -11 23 7 57 -17 59 -41 2 -29 5 -32 26
-28 16 4 19 2 10 -7 -7 -7 -12 -17 -12 -22 0 -6 4 -5 9 3 10 15 31 7 31 -12 0
-7 -4 -6 -11 3 -9 13 -10 13 -6 0 2 -8 11 -14 19 -12 9 1 18 -4 21 -12 4 -10
1 -13 -9 -9 -7 3 -14 1 -14 -5 0 -5 10 -9 23 -8 28 2 59 -36 61 -75 0 -16 4
-29 9 -29 4 0 5 15 2 33 -4 22 -2 28 4 17 5 -8 7 -18 5 -22 -3 -4 1 -8 9 -8
22 0 56 -55 51 -81 l-5 -24 10 23 c6 12 13 22 16 22 4 0 4 -4 1 -9 -3 -5 1
-12 10 -15 8 -3 13 -10 10 -15 -3 -5 2 -15 11 -22 14 -12 16 -12 8 0 -6 10 -4
12 4 7 7 -5 10 -14 7 -22 -3 -9 0 -11 11 -7 12 5 14 3 7 -8 -14 -23 -13 -40 2
-46 8 -3 11 -9 8 -14 -3 -5 2 -6 12 -2 15 5 15 7 -2 17 -21 12 -30 36 -14 36
6 0 10 -5 10 -11 0 -5 5 -7 12 -3 6 4 8 3 4 -4 -3 -5 0 -12 6 -15 10 -3 9 -8
-2 -22 -14 -17 -13 -18 2 -13 14 6 15 2 8 -22 -5 -18 -4 -32 3 -39 8 -8 8 -11
-2 -11 -7 0 -9 -5 -6 -10 4 -6 1 -18 -7 -27 -8 -10 -8 -14 -1 -10 6 4 14 3 18
-3 3 -5 2 -10 -3 -10 -10 0 -9 -30 2 -48 4 -7 2 -12 -4 -12 -6 0 -8 -5 -5 -10
4 -6 1 -18 -7 -27 -8 -10 -8 -14 -1 -10 6 4 14 3 18 -3 3 -5 3 -10 -2 -10 -4
0 -8 -53 -8 -117 l0 -118 -83 -2 c-61 -1 -80 2 -75 10 5 9 3 9 -8 0 -20 -16
-121 -15 -113 0 4 8 2 7 -7 0 -18 -18 -123 -18 -113 0 6 9 5 9 -7 0 -20 -16
-121 -15 -113 0 4 8 2 7 -7 0 -18 -18 -123 -18 -113 0 6 9 5 9 -7 0 -20 -16
-121 -15 -113 0 4 8 2 7 -7 -1 -18 -17 -123 -17 -113 1 6 9 5 9 -7 0 -18 -14
-59 -13 -59 2 0 5 -5 3 -10 -5 -8 -13 -11 -12 -24 5 -18 24 -20 173 -2 194 8
11 8 13 0 8 -18 -11 -14 45 5 68 15 18 15 19 -1 6 -16 -12 -18 -10 -18 21 0
19 6 40 13 47 10 11 10 13 0 7 -10 -5 -13 3 -13 31 0 22 6 45 13 52 8 9 8 12
0 7 -8 -4 -11 9 -11 47 1 30 -2 59 -6 65 -4 8 0 12 11 12 15 0 16 2 3 10 -10
6 -11 10 -2 10 6 0 12 5 12 11 0 5 -4 8 -9 5 -5 -4 -1 12 10 34 11 22 22 40
25 40 2 0 0 -9 -6 -20 -8 -16 -8 -18 4 -14 14 5 16 27 3 40 -3 4 1 19 11 33
10 14 24 38 31 53 8 15 18 25 23 22 4 -3 8 0 8 5 0 6 -5 11 -11 11 -8 0 -7 5
1 15 7 9 19 14 26 11 7 -3 16 0 20 6 4 7 3 8 -4 4 -7 -4 -12 -5 -12 -2 0 2 -3
11 -6 20 -3 9 -1 16 6 16 6 0 8 -5 4 -12 -4 -6 -3 -8 4 -5 5 4 8 16 5 27 -3
12 0 20 8 20 7 0 9 3 6 6 -12 13 14 46 31 40 13 -5 12 -2 -2 9 -18 13 -15 19
6 16 4 0 5 9 3 20 -4 18 -2 19 12 7 15 -12 15 -11 5 8 -11 21 -7 34 10 34 5 0
6 -4 3 -10 -3 -6 1 -7 10 -4 14 6 14 8 -2 20 -17 13 -17 15 -1 27 10 8 15 17
11 20 -3 4 -1 7 6 7 7 0 10 4 7 8 -7 12 25 72 40 73 8 1 20 2 27 3 6 1 10 10
9 21 -2 11 0 17 4 12 4 -4 8 -17 10 -30z m1074 23 c0 -5 -2 -10 -4 -10 -3 0
-8 5 -11 10 -3 6 -1 10 4 10 6 0 11 -4 11 -10z m404 -35 c-4 -8 -8 -15 -10
-15 -2 0 -4 7 -4 15 0 8 4 15 10 15 5 0 7 -7 4 -15z m-1444 1 c0 -11 -19 -15
-25 -6 -3 5 1 10 9 10 9 0 16 -2 16 -4z m3100 -891 c-7 -9 -15 -13 -17 -11 -7
7 7 26 19 26 6 0 6 -6 -2 -15z m-2227 -69 c7 3 2 -3 -11 -13 -21 -17 -22 -21
-9 -32 9 -7 18 -8 21 -2 3 5 15 7 25 4 25 -6 73 -60 61 -68 -6 -3 -10 -12 -10
-18 0 -8 3 -7 9 2 6 9 16 11 27 7 18 -7 18 -8 -1 -23 -20 -15 -20 -15 2 -8 18
5 25 1 35 -19 6 -14 15 -26 20 -26 5 0 6 5 2 11 -5 8 -1 8 13 0 11 -6 24 -7
29 -3 5 4 3 0 -4 -9 -11 -15 -6 -16 50 -15 43 1 67 6 76 16 11 13 11 13 6 -1
-4 -13 1 -16 28 -15 18 0 39 8 46 16 11 13 11 13 6 -1 -4 -13 1 -16 28 -15 18
0 39 8 46 16 11 13 11 13 6 -1 -4 -13 1 -16 28 -15 18 0 39 8 46 16 11 13 11
13 6 -1 -4 -13 1 -16 28 -15 18 0 39 8 46 16 11 13 11 13 6 -1 -4 -13 1 -16
28 -15 18 0 39 8 46 16 11 13 11 13 6 -1 -4 -13 1 -16 28 -15 18 0 39 8 46 16
11 13 11 13 6 -1 -4 -13 1 -16 28 -15 18 0 39 8 46 16 11 13 11 13 6 -1 -4
-13 1 -16 28 -15 18 0 39 8 46 16 11 13 11 13 6 -1 -4 -13 1 -16 28 -15 18 0
39 8 46 16 11 13 11 13 6 -1 -4 -13 1 -16 28 -15 18 0 39 8 46 16 11 13 11 13
7 0 -6 -17 30 -26 40 -10 3 5 13 6 22 3 10 -4 14 -2 10 4 -3 5 0 10 8 10 8 0
14 -3 13 -6 -2 -20 4 -22 16 -6 13 18 14 18 25 -3 6 -12 10 -22 9 -23 -30 -7
-48 -7 -48 2 0 8 -5 8 -15 -1 -11 -9 -15 -9 -15 -1 0 7 -5 9 -12 5 -20 -12
-1211 -12 -1223 0 -12 13 -18 109 -6 102 4 -3 8 1 8 9 0 8 -3 12 -7 10 -3 -2
-6 5 -6 16 0 13 5 18 16 14 9 -3 7 1 -5 10 -16 13 -18 19 -7 35 15 24 15 33 2
25 -6 -4 -7 1 -3 11 5 15 7 15 15 0 5 -9 15 -14 21 -10z m27 -27 c13 -9 12
-10 -2 -5 -10 3 -20 1 -23 -5 -4 -5 -11 -6 -17 -3 -6 4 -5 10 3 15 18 11 21
11 39 -2z m-1850 -39 c0 -5 3 -9 8 -9 18 3 32 -2 32 -12 0 -6 -5 -7 -12 -2 -7
4 -21 8 -30 9 -10 1 -21 2 -24 3 -8 2 6 21 17 21 5 0 9 -4 9 -10z m330 -60
c-13 -9 -13 -10 0 -10 13 0 13 -2 0 -9 -8 -6 -17 -8 -22 -5 -12 8 3 34 21 34
14 0 14 -2 1 -10z m1790 -64 c0 -3 -4 -8 -10 -11 -5 -3 -10 -1 -10 4 0 6 5 11
10 11 6 0 10 -2 10 -4z m80 0 c0 -3 -4 -8 -10 -11 -5 -3 -10 -1 -10 4 0 6 5
11 10 11 6 0 10 -2 10 -4z m80 0 c0 -3 -4 -8 -10 -11 -5 -3 -10 -1 -10 4 0 6
5 11 10 11 6 0 10 -2 10 -4z m80 0 c0 -3 -4 -8 -10 -11 -5 -3 -10 -1 -10 4 0
6 5 11 10 11 6 0 10 -2 10 -4z m80 0 c0 -3 -4 -8 -10 -11 -5 -3 -10 -1 -10 4
0 6 5 11 10 11 6 0 10 -2 10 -4z m80 0 c0 -3 -4 -8 -10 -11 -5 -3 -10 -1 -10
4 0 6 5 11 10 11 6 0 10 -2 10 -4z m80 0 c0 -3 -4 -8 -10 -11 -5 -3 -10 -1
-10 4 0 6 5 11 10 11 6 0 10 -2 10 -4z m80 0 c0 -3 -4 -8 -10 -11 -5 -3 -10
-1 -10 4 0 6 5 11 10 11 6 0 10 -2 10 -4z m80 0 c0 -3 -4 -8 -10 -11 -5 -3
-10 -1 -10 4 0 6 5 11 10 11 6 0 10 -2 10 -4z m80 0 c0 -3 -4 -8 -10 -11 -5
-3 -10 -1 -10 4 0 6 5 11 10 11 6 0 10 -2 10 -4z m80 0 c0 -3 -4 -8 -10 -11
-5 -3 -10 -1 -10 4 0 6 5 11 10 11 6 0 10 -2 10 -4z m80 0 c0 -3 -4 -8 -10
-11 -5 -3 -10 -1 -10 4 0 6 5 11 10 11 6 0 10 -2 10 -4z m160 -17 c0 -14 30
-11 31 4 0 10 2 10 6 0 2 -7 9 -13 14 -13 6 0 8 4 4 9 -3 5 -1 12 4 15 5 4 12
2 16 -4 4 -6 11 -7 17 -4 7 5 8 2 3 -6 -6 -10 -4 -12 8 -7 11 4 14 2 10 -9 -4
-11 -9 -12 -19 -3 -8 6 -14 7 -14 2 0 -5 -27 -9 -60 -9 -43 0 -61 4 -65 15 -3
8 0 18 6 22 14 8 39 1 39 -12z m-1204 -261 c0 -13 -4 -14 -13 -6 -9 7 -17 7
-26 -1 -10 -8 -19 -7 -33 5 -16 13 -16 15 -2 10 10 -3 19 -2 22 2 9 15 52 7
52 -10z m640 0 c0 -13 -4 -14 -13 -6 -9 7 -17 7 -26 -1 -10 -8 -19 -7 -33 5
-16 13 -16 15 -2 10 10 -3 19 -2 22 2 9 15 52 7 52 -10z m867 7 c-3 -9 -8 -14
-10 -11 -3 3 -2 9 2 15 9 16 15 13 8 -4z m-2681 -10 c5 -6 8 -5 8 3 0 6 7 12
15 12 8 0 15 -5 15 -11 0 -5 -4 -8 -9 -4 -5 3 -12 1 -16 -5 -4 -6 -13 -7 -23
-1 -9 4 -25 7 -34 6 -10 -2 -20 1 -24 6 -7 12 59 7 68 -6z m160 2 c6 -9 8 -9
8 1 0 6 7 12 15 12 8 0 15 -4 15 -10 0 -5 -3 -9 -7 -9 -5 1 -10 0 -13 -1 -18
-8 -60 -5 -63 5 -6 15 35 17 45 2z m156 1 c-6 -16 -36 -19 -41 -4 -3 7 5 13
20 14 15 1 23 -3 21 -10z m282 4 c0 -5 -7 -9 -15 -9 -8 0 -15 4 -15 9 0 4 7 8
15 8 8 0 15 -4 15 -8z m480 0 c0 -5 -7 -9 -15 -9 -8 0 -15 4 -15 9 0 4 7 8 15
8 8 0 15 -4 15 -8z m320 0 c0 -5 -7 -9 -15 -9 -8 0 -15 4 -15 9 0 4 7 8 15 8
8 0 15 -4 15 -8z m30 -2 c0 -5 -2 -10 -4 -10 -3 0 -8 5 -11 10 -3 6 -1 10 4
10 6 0 11 -4 11 -10z m290 2 c0 -5 -7 -9 -15 -9 -8 0 -15 4 -15 9 0 4 7 8 15
8 8 0 15 -4 15 -8z m320 0 c0 -5 -7 -9 -15 -9 -8 0 -15 4 -15 9 0 4 7 8 15 8
8 0 15 -4 15 -8z m30 -2 c0 -5 -2 -10 -4 -10 -3 0 -8 5 -11 10 -3 6 -1 10 4
10 6 0 11 -4 11 -10z m450 2 c0 -5 -7 -9 -15 -9 -8 0 -15 4 -15 9 0 4 7 8 15
8 8 0 15 -4 15 -8z"/>
<path d="M2230 3799 c0 -15 18 -19 23 -6 3 8 -1 14 -9 14 -8 0 -14 -4 -14 -8z"/>
<path d="M2350 3799 c0 -5 5 -7 10 -4 6 3 10 8 10 11 0 2 -4 4 -10 4 -5 0 -10
-5 -10 -11z"/>
<path d="M1970 3785 c-5 -7 -21 -11 -34 -10 -18 2 -23 -1 -19 -12 4 -11 8 -12
13 -3 4 7 12 10 18 6 5 -3 15 1 22 8 6 8 21 13 32 11 11 -3 18 -1 14 2 -12 12
-35 11 -46 -2z"/>
<path d="M2030 3791 c0 -6 4 -13 10 -16 6 -3 7 1 4 9 -7 18 -14 21 -14 7z"/>
<path d="M2417 3783 c3 -7 6 -13 8 -13 2 0 5 6 8 13 3 8 -1 14 -8 14 -7 0 -11
-6 -8 -14z"/>
<path d="M2486 3775 c-9 -26 -7 -32 5 -12 6 10 9 21 6 23 -2 3 -7 -2 -11 -11z"/>
<path d="M2436 3763 c-6 -14 -5 -15 5 -6 7 7 10 15 7 18 -3 3 -9 -2 -12 -12z"/>
<path d="M1835 3760 c-4 -6 -11 -8 -16 -5 -5 3 -6 -1 -2 -11 6 -15 7 -15 15 0
8 14 12 15 26 4 15 -12 16 -11 3 5 -16 20 -18 20 -26 7z"/>
<path d="M1884 3755 c8 -7 12 -16 8 -20 -4 -5 -2 -5 5 -1 16 9 6 33 -14 33
-14 0 -14 -1 1 -12z"/>
<path d="M2015 3760 c3 -5 8 -10 11 -10 2 0 4 5 4 10 0 6 -5 10 -11 10 -5 0
-7 -4 -4 -10z"/>
<path d="M2554 3762 c3 -5 0 -13 -6 -15 -8 -3 -6 -6 5 -6 19 -1 23 14 5 25 -6
4 -8 3 -4 -4z"/>
<path d="M2669 3726 c6 -7 9 -15 6 -18 -3 -2 1 -5 9 -5 20 0 13 30 -8 33 -13
2 -14 -1 -7 -10z"/>
<path d="M1730 3721 c0 -6 4 -13 10 -16 6 -3 7 1 4 9 -7 18 -14 21 -14 7z"/>
<path d="M1695 3680 c3 -5 8 -10 11 -10 2 0 4 5 4 10 0 6 -5 10 -11 10 -5 0
-7 -4 -4 -10z"/>
<path d="M1660 3666 c0 -2 7 -7 16 -10 8 -3 12 -2 9 4 -6 10 -25 14 -25 6z"/>
<path d="M1630 3656 c0 -2 8 -10 18 -17 15 -13 16 -12 3 4 -13 16 -21 21 -21
13z"/>
<path d="M2867 3627 c-3 -7 3 -13 14 -13 13 0 15 3 7 13 -6 7 -12 13 -13 13
-2 0 -5 -6 -8 -13z"/>
<path d="M1491 3594 c0 -11 3 -14 6 -6 3 7 2 16 -1 19 -3 4 -6 -2 -5 -13z"/>
<path d="M1510 3606 c0 -2 7 -7 16 -10 8 -3 12 -2 9 4 -6 10 -25 14 -25 6z"/>
<path d="M1460 3555 c-19 -22 -8 -25 13 -3 9 10 13 18 8 18 -5 0 -14 -7 -21
-15z"/>
<path d="M3038 3493 c7 -3 16 -2 19 1 4 3 -2 6 -13 5 -11 0 -14 -3 -6 -6z"/>
<path d="M3070 3479 c0 -5 5 -7 10 -4 6 3 10 8 10 11 0 2 -4 4 -10 4 -5 0 -10
-5 -10 -11z"/>
<path d="M3119 3413 c-13 -16 -12 -17 4 -4 16 13 21 21 13 21 -2 0 -10 -8 -17
-17z"/>
<path d="M1255 3360 c3 -5 8 -10 11 -10 2 0 4 5 4 10 0 6 -5 10 -11 10 -5 0
-7 -4 -4 -10z"/>
<path d="M3195 3310 c-3 -6 1 -7 9 -4 18 7 21 14 7 14 -6 0 -13 -4 -16 -10z"/>
<path d="M3226 3285 c3 -11 6 -28 6 -37 0 -10 3 -20 7 -23 12 -7 5 40 -9 62
-11 17 -11 17 -4 -2z"/>
<path d="M1188 3253 c7 -3 16 -2 19 1 4 3 -2 6 -13 5 -11 0 -14 -3 -6 -6z"/>
<path d="M1170 3199 c0 -5 5 -7 10 -4 6 3 10 8 10 11 0 2 -4 4 -10 4 -5 0 -10
-5 -10 -11z"/>
<path d="M3257 3195 c-6 -15 10 -32 20 -21 4 3 1 6 -5 6 -6 0 -9 7 -6 15 4 8
4 15 1 15 -3 0 -7 -7 -10 -15z"/>
<path d="M1130 3090 c-9 -6 -10 -10 -3 -10 6 0 15 5 18 10 8 12 4 12 -15 0z"/>
<path d="M1126 3022 c-3 -5 1 -9 9 -9 8 0 12 4 9 9 -3 4 -7 8 -9 8 -2 0 -6 -4
-9 -8z"/>
<path d="M3815 2991 c-3 -6 -14 -8 -25 -6 -11 2 -23 -2 -26 -8 -4 -7 -3 -9 1
-4 5 4 17 -1 27 -10 13 -12 18 -13 16 -4 -4 19 29 22 47 4 8 -8 15 -10 15 -5
0 15 -48 43 -55 33z"/>
<path d="M3557 2962 c4 -10 8 -11 13 -2 4 7 12 10 18 6 6 -3 13 -3 16 2 3 5
-8 8 -24 8 -20 0 -26 -4 -23 -14z"/>
<path d="M3737 2961 c-4 -17 -3 -21 5 -13 5 5 8 16 6 23 -3 8 -7 3 -11 -10z"/>
<path d="M3993 2950 c1 -11 4 -20 8 -20 10 0 19 27 12 34 -12 12 -22 5 -20
-14z"/>
<path d="M1065 2949 c-11 -16 -1 -19 13 -3 7 8 8 14 3 14 -5 0 -13 -5 -16 -11z"/>
<path d="M3833 2945 c0 -8 4 -12 9 -9 5 3 6 10 3 15 -9 13 -12 11 -12 -6z"/>
<path d="M4029 2942 c-11 -14 -11 -15 1 -5 10 10 19 8 41 -8 26 -19 28 -19 22
-2 -6 16 -5 17 13 3 18 -14 18 -14 5 2 -7 10 -17 15 -22 12 -5 -3 -17 0 -28 5
-15 8 -22 7 -32 -7z"/>
<path d="M1000 2940 c-13 -8 -12 -10 3 -10 9 0 17 5 17 10 0 12 -1 12 -20 0z"/>
<path d="M1034 2936 c1 -8 5 -18 8 -22 4 -3 5 1 4 10 -1 8 -5 18 -8 22 -4 3
-5 -1 -4 -10z"/>
<path d="M3667 2939 c7 -7 15 -10 18 -7 3 3 -2 9 -12 12 -14 6 -15 5 -6 -5z"/>
<path d="M3935 2940 c3 -5 8 -10 11 -10 2 0 4 5 4 10 0 6 -5 10 -11 10 -5 0
-7 -4 -4 -10z"/>
<path d="M926 2925 c-10 -8 -22 -12 -26 -10 -4 3 -13 -1 -19 -9 -9 -10 -7 -17
6 -27 16 -13 17 -12 5 3 -8 10 -9 19 -3 22 5 3 12 0 14 -6 4 -10 6 -10 6 0 1
6 8 12 16 12 8 0 15 5 15 11 0 5 5 7 12 3 7 -4 8 -3 4 4 -9 14 -7 15 -30 -3z"/>
<path d="M3464 2924 c-18 -14 -18 -15 4 -4 12 6 22 13 22 15 0 8 -5 6 -26 -11z"/>
<path d="M971 2914 c0 -11 3 -14 6 -6 3 7 2 16 -1 19 -3 4 -6 -2 -5 -13z"/>
<path d="M3356 2898 c3 -5 10 -6 15 -3 13 9 11 12 -6 12 -8 0 -12 -4 -9 -9z"/>
<path d="M4176 2902 c-3 -5 1 -9 9 -9 8 0 12 4 9 9 -3 4 -7 8 -9 8 -2 0 -6 -4
-9 -8z"/>
<path d="M846 2885 c4 -8 11 -15 16 -15 6 0 5 6 -2 15 -7 8 -14 15 -16 15 -2
0 -1 -7 2 -15z"/>
<path d="M4231 2874 c0 -11 3 -14 6 -6 3 7 2 16 -1 19 -3 4 -6 -2 -5 -13z"/>
<path d="M750 2841 c0 -6 4 -13 10 -16 6 -3 7 1 4 9 -7 18 -14 21 -14 7z"/>
<path d="M656 2813 c-10 -11 -7 -21 10 -27 10 -4 13 -2 8 6 -5 8 -2 9 9 5 23
-9 21 0 -2 12 -10 6 -21 7 -25 4z"/>
<path d="M708 2813 c6 -2 9 -10 6 -15 -4 -7 -2 -8 5 -4 13 9 5 26 -12 25 -9 0
-8 -2 1 -6z"/>
<path d="M4393 2775 c-10 -11 -9 -13 6 -12 11 1 17 7 14 14 -6 16 -5 16 -20
-2z"/>
<path d="M626 2745 c-11 -8 -15 -15 -9 -15 6 0 16 7 23 15 16 19 11 19 -14 0z"/>
<path d="M4430 2749 c0 -5 -5 -7 -12 -3 -7 4 -8 3 -4 -4 4 -6 13 -9 21 -6 8 4
12 10 9 15 -7 12 -14 11 -14 -2z"/>
<path d="M553 2727 c-3 -6 -1 -7 5 -3 7 4 12 1 12 -8 0 -8 3 -17 8 -19 4 -3 7
5 7 17 0 23 -21 31 -32 13z"/>
<path d="M510 2680 c0 -5 5 -10 11 -10 5 0 7 5 4 10 -3 6 -8 10 -11 10 -2 0
-4 -4 -4 -10z"/>
<path d="M4556 2632 c-3 -5 1 -9 9 -9 8 0 12 4 9 9 -3 4 -7 8 -9 8 -2 0 -6 -4
-9 -8z"/>
<path d="M450 2615 c-11 -13 -10 -14 4 -9 9 3 16 10 16 15 0 13 -6 11 -20 -6z"/>
<path d="M4593 2585 c0 -8 4 -15 9 -15 4 0 8 4 8 9 0 6 -4 12 -8 15 -5 3 -9
-1 -9 -9z"/>
<path d="M4620 2565 c0 -5 5 -17 10 -25 5 -8 10 -10 10 -5 0 6 -5 17 -10 25
-5 8 -10 11 -10 5z"/>
<path d="M366 2398 c3 -5 10 -6 15 -3 13 9 11 12 -6 12 -8 0 -12 -4 -9 -9z"/>
<path d="M4734 2296 c1 -8 5 -18 8 -22 4 -3 5 1 4 10 -1 8 -5 18 -8 22 -4 3
-5 -1 -4 -10z"/>
<path d="M337 2235 c-4 -8 -3 -16 1 -19 4 -3 9 4 9 15 2 23 -3 25 -10 4z"/>
<path d="M355 2130 c10 -11 20 -20 23 -20 3 0 -3 9 -13 20 -10 11 -20 20 -23
20 -3 0 3 -9 13 -20z"/>
<path d="M4775 2060 c3 -5 8 -10 11 -10 2 0 4 5 4 10 0 6 -5 10 -11 10 -5 0
-7 -4 -4 -10z"/>
<path d="M4515 1571 c-3 -5 -2 -12 3 -15 5 -3 9 1 9 9 0 17 -3 19 -12 6z"/>
<path d="M2029 2586 c6 -7 9 -15 6 -17 -2 -3 4 -5 15 -5 23 0 11 28 -14 32
-13 2 -14 -1 -7 -10z"/>
<path d="M2077 2579 c7 -7 15 -10 18 -7 3 3 -2 9 -12 12 -14 6 -15 5 -6 -5z"/>
<path d="M2144 2582 c7 -11 -7 -17 -29 -12 -5 1 -6 -2 -2 -6 13 -14 35 -13 41
2 3 7 0 16 -6 20 -7 4 -8 3 -4 -4z"/>
<path d="M2340 2560 c-8 -5 -24 -7 -35 -4 -18 4 -18 4 -3 -6 16 -10 58 1 58
15 0 7 -3 6 -20 -5z"/>
<path d="M2460 2545 c8 -11 15 -21 16 -23 1 -2 5 5 8 15 4 9 4 14 0 10 -4 -4
-14 -1 -23 6 -14 11 -15 10 -1 -8z"/>
<path d="M2511 2529 c12 -24 20 -25 12 -1 -5 13 -3 14 7 5 7 -6 19 -9 26 -6 8
3 14 0 14 -6 0 -6 5 -11 12 -11 26 0 -21 32 -51 35 -27 2 -29 0 -20 -16z"/>
<path d="M2602 2526 c7 -8 15 -12 17 -11 5 6 -10 25 -20 25 -5 0 -4 -6 3 -14z"/>
<path d="M2697 2513 c-4 -3 -7 -11 -7 -17 0 -6 5 -5 12 2 6 6 9 14 7 17 -3 3
-9 2 -12 -2z"/>
<path d="M2740 2516 c0 -2 9 -6 20 -9 11 -3 18 -1 14 4 -5 9 -34 13 -34 5z"/>
<path d="M2896 2513 c-13 -14 -5 -24 15 -18 16 6 20 4 13 -6 -6 -12 -5 -12 8
-1 14 11 18 10 27 -5 6 -10 11 -12 11 -5 0 6 5 12 11 12 5 0 7 -5 3 -12 -5 -7
-3 -8 5 -3 18 11 -1 27 -37 30 -16 1 -34 5 -39 8 -6 4 -13 4 -17 0z"/>
<path d="M3082 2486 c7 -8 15 -12 17 -11 5 6 -10 25 -20 25 -5 0 -4 -6 3 -14z"/>
<path d="M2855 2480 c3 -5 8 -10 11 -10 2 0 4 5 4 10 0 6 -5 10 -11 10 -5 0
-7 -4 -4 -10z"/>
<path d="M3110 2479 c0 -4 5 -11 10 -14 6 -3 10 -1 10 4 0 6 5 11 11 11 6 0 9
-6 6 -13 -3 -8 1 -14 9 -14 17 0 18 11 2 24 -15 12 -48 13 -48 2z"/>
<path d="M3236 2462 c-3 -5 1 -9 9 -9 8 0 12 4 9 9 -3 4 -7 8 -9 8 -2 0 -6 -4
-9 -8z"/>
<path d="M3265 2440 c-3 -6 1 -7 9 -4 18 7 21 14 7 14 -6 0 -13 -4 -16 -10z"/>
<path d="M3335 2430 c-3 -6 1 -7 9 -4 18 7 21 14 7 14 -6 0 -13 -4 -16 -10z"/>
<path d="M3543 2253 c-17 -6 -17 -20 0 -20 8 0 14 6 14 14 0 7 -1 13 -1 12 -1
0 -7 -3 -13 -6z"/>
<path d="M3590 2158 c0 -4 4 -8 9 -8 6 0 12 4 15 8 3 5 -1 9 -9 9 -8 0 -15 -4
-15 -9z"/>
<path d="M3635 2150 c-4 -6 -1 -9 7 -8 8 2 12 -5 10 -17 -2 -16 -1 -17 7 -5
10 13 11 13 12 0 1 -8 1 -19 0 -23 -1 -5 3 -6 9 -2 12 7 0 35 -24 54 -10 8
-16 9 -21 1z"/>
<path d="M3710 2060 c0 -5 6 -10 14 -10 8 0 16 -7 20 -15 3 -8 11 -15 17 -15
7 0 0 11 -15 25 -30 27 -36 30 -36 15z"/>
<path d="M3809 1961 c6 -10 7 -21 4 -25 -3 -3 -1 -6 5 -6 15 0 11 38 -5 45
-10 3 -11 0 -4 -14z"/>
<path d="M3857 1895 c-4 -8 -1 -17 6 -21 7 -4 9 -4 5 1 -4 4 -3 14 3 22 7 8 8
13 1 13 -5 0 -12 -7 -15 -15z"/>
<path d="M3873 1845 c0 -8 4 -12 9 -9 5 3 6 10 3 15 -9 13 -12 11 -12 -6z"/>
<path d="M3926 1842 c-3 -5 1 -9 9 -9 8 0 12 4 9 9 -3 4 -7 8 -9 8 -2 0 -6 -4
-9 -8z"/>
<path d="M3947 1779 c7 -7 15 -10 18 -7 3 3 -2 9 -12 12 -14 6 -15 5 -6 -5z"/>
<path d="M3985 1769 c-4 -6 -5 -12 -2 -15 2 -3 7 2 10 11 7 17 1 20 -8 4z"/>
<path d="M4056 1692 c-3 -5 1 -9 9 -9 8 0 12 4 9 9 -3 4 -7 8 -9 8 -2 0 -6 -4
-9 -8z"/>
<path d="M4085 1660 c3 -5 8 -10 11 -10 2 0 4 5 4 10 0 6 -5 10 -11 10 -5 0
-7 -4 -4 -10z"/>
<path d="M4090 1620 c0 -5 5 -10 11 -10 5 0 7 5 4 10 -3 6 -8 10 -11 10 -2 0
-4 -4 -4 -10z"/>
<path d="M4140 1602 c0 -12 14 -27 28 -29 17 -4 15 0 -8 20 -11 9 -20 13 -20
9z"/>
<path d="M4105 1580 c-3 -6 1 -7 9 -4 18 7 21 14 7 14 -6 0 -13 -4 -16 -10z"/>
<path d="M1680 2465 c-7 -9 -8 -15 -2 -15 5 0 12 7 16 15 3 8 4 15 2 15 -2 0
-9 -7 -16 -15z"/>
<path d="M1823 2409 c9 -6 14 -15 11 -21 -4 -7 -2 -8 4 -4 7 4 12 2 12 -3 0
-6 5 -11 12 -11 6 0 1 11 -12 25 -13 14 -28 25 -34 25 -6 0 -3 -5 7 -11z"/>
<path d="M1989 2227 c6 -8 7 -18 3 -22 -4 -5 -1 -5 6 -1 10 6 10 11 1 22 -6 8
-14 14 -16 14 -3 0 0 -6 6 -13z"/>
<path d="M1560 2200 c-9 -6 -10 -10 -3 -10 6 0 15 5 18 10 8 12 4 12 -15 0z"/>
<path d="M2130 2071 c0 -5 7 -12 16 -15 14 -5 15 -4 4 9 -14 17 -20 19 -20 6z"/>
<path d="M2133 2035 c0 -8 4 -12 9 -9 5 3 6 10 3 15 -9 13 -12 11 -12 -6z"/>
<path d="M1450 2000 c0 -5 5 -10 10 -10 6 0 10 5 10 10 0 6 -4 10 -10 10 -5 0
-10 -4 -10 -10z"/>
<path d="M2216 1963 c-6 -14 -5 -15 5 -6 7 7 10 15 7 18 -3 3 -9 -2 -12 -12z"/>
<path d="M2275 1880 c3 -5 8 -10 11 -10 2 0 4 5 4 10 0 6 -5 10 -11 10 -5 0
-7 -4 -4 -10z"/>
<path d="M2356 1442 c-3 -5 1 -9 9 -9 8 0 12 4 9 9 -3 4 -7 8 -9 8 -2 0 -6 -4
-9 -8z"/>
<path d="M2690 1461 c0 -6 6 -11 13 -11 8 0 7 -4 -3 -10 -9 -6 -10 -10 -3 -10
19 0 24 17 8 30 -10 9 -15 9 -15 1z"/>
<path d="M2655 1440 c3 -5 8 -10 11 -10 2 0 4 5 4 10 0 6 -5 10 -11 10 -5 0
-7 -4 -4 -10z"/>
<path d="M2635 1340 c-3 -5 -1 -10 4 -10 6 0 11 5 11 10 0 6 -2 10 -4 10 -3 0
-8 -4 -11 -10z"/>
<path d="M2830 1315 c0 -8 2 -15 4 -15 2 0 6 7 10 15 3 8 1 15 -4 15 -6 0 -10
-7 -10 -15z"/>
<path d="M3907 1317 c-3 -8 1 -14 8 -14 7 0 11 6 8 14 -3 7 -6 13 -8 13 -2 0
-5 -6 -8 -13z"/>
<path d="M3955 1320 c-3 -5 -5 -10 -3 -11 33 -8 38 -7 27 7 -14 17 -16 17 -24
4z"/>
<path d="M4053 1315 c0 -8 4 -12 9 -9 5 3 6 10 3 15 -9 13 -12 11 -12 -6z"/>
<path d="M915 3291 c-3 -5 -2 -12 3 -15 5 -3 9 1 9 9 0 17 -3 19 -12 6z"/>
<path d="M90 2082 c0 -5 7 -9 15 -9 8 0 12 4 9 9 -3 4 -9 8 -15 8 -5 0 -9 -4
-9 -8z"/>
<path d="M110 2026 c0 -2 7 -7 16 -10 8 -3 12 -2 9 4 -6 10 -25 14 -25 6z"/>
<path d="M156 1907 c3 -10 9 -15 12 -12 3 3 0 11 -7 18 -10 9 -11 8 -5 -6z"/>
<path d="M175 1870 c-4 -6 1 -7 11 -3 13 5 15 3 9 -7 -5 -9 -4 -11 4 -6 6 4 9
12 6 17 -8 12 -22 12 -30 -1z"/>
<path d="M211 1837 c2 -1 13 -9 24 -17 19 -14 19 -14 6 3 -7 9 -18 17 -24 17
-6 0 -8 -1 -6 -3z"/>
<path d="M190 1805 c0 -7 30 -13 34 -7 3 4 -4 9 -15 9 -10 1 -19 0 -19 -2z"/>
<path d="M236 1779 c3 -5 9 -7 14 -4 5 3 13 -2 18 -11 6 -10 12 -12 16 -6 3 5
-2 13 -12 17 -27 13 -43 14 -36 4z"/>
<path d="M4979 1768 c-5 -18 -6 -38 -1 -34 7 8 12 36 6 36 -2 0 -4 -1 -5 -2z"/>
<path d="M4947 1702 c-20 -22 -21 -32 -5 -32 6 0 8 3 5 7 -4 3 0 15 10 25 9
10 14 18 11 18 -3 0 -12 -8 -21 -18z"/>
<path d="M375 1661 c-4 -7 -1 -10 7 -9 7 2 12 -5 11 -16 -1 -13 2 -15 10 -7 8
8 7 15 -5 27 -11 11 -18 13 -23 5z"/>
<path d="M4908 1633 c6 -2 9 -10 6 -15 -4 -7 -2 -8 5 -4 13 9 5 26 -12 25 -9
0 -8 -2 1 -6z"/>
<path d="M446 1612 c-3 -6 -1 -14 5 -17 15 -10 25 3 12 16 -7 7 -13 7 -17 1z"/>
<path d="M659 1497 c6 -8 7 -18 3 -22 -4 -5 -1 -5 6 -1 10 6 10 11 1 22 -6 8
-14 14 -16 14 -3 0 0 -6 6 -13z"/>
<path d="M4750 1440 c0 -5 5 -10 11 -10 5 0 7 5 4 10 -3 6 -8 10 -11 10 -2 0
-4 -4 -4 -10z"/>
<path d="M901 1416 c-8 -10 -9 -16 -1 -21 6 -4 10 -3 9 2 -4 22 2 25 17 7 14
-18 15 -18 4 4 -13 26 -14 26 -29 8z"/>
<path d="M4721 1421 c-10 -6 -9 -10 3 -14 8 -3 18 -2 21 3 8 13 -9 20 -24 11z"/>
<path d="M4715 1379 c-4 -6 -5 -12 -2 -15 2 -3 7 2 10 11 7 17 1 20 -8 4z"/>
<path d="M4640 1331 c-8 -6 -19 -7 -25 -4 -5 4 -7 2 -2 -2 12 -14 44 -13 44 2
0 7 -1 13 -1 13 -1 0 -8 -4 -16 -9z"/>
<path d="M4381 1322 c-1 -7 -5 -11 -10 -7 -5 3 -13 0 -17 -6 -4 -8 -3 -9 4 -5
7 4 12 2 12 -5 0 -10 3 -10 11 -2 6 6 9 17 6 25 -4 10 -6 10 -6 0z"/>
<path d="M4429 1319 c-7 -5 -9 -9 -4 -10 6 0 20 -2 33 -3 27 -3 28 0 4 13 -11
6 -24 6 -33 0z"/>
<path d="M4525 1320 c-7 -11 -8 -11 23 -14 12 -2 30 3 39 9 14 11 14 12 -1 12
-9 0 -16 -5 -16 -11 0 -6 -5 -5 -12 2 -15 15 -25 15 -33 2z"/>
<path d="M4495 1310 c-3 -5 -1 -10 4 -10 6 0 11 5 11 10 0 6 -2 10 -4 10 -3 0
-8 -4 -11 -10z"/>
<path d="M4595 1300 c-3 -5 -1 -10 4 -10 6 0 11 5 11 10 0 6 -2 10 -4 10 -3 0
-8 -4 -11 -10z"/>
<path d="M4536 1278 c3 -5 10 -6 15 -3 13 9 11 12 -6 12 -8 0 -12 -4 -9 -9z"/>
<path d="M4356 1258 c3 -4 11 -5 19 -1 21 7 19 12 -4 10 -11 0 -18 -5 -15 -9z"/>
<path d="M1195 1050 c-4 -6 -11 -7 -17 -4 -7 4 -8 2 -4 -4 7 -12 36 -5 36 9 0
12 -7 11 -15 -1z"/>
<path d="M2814 1049 c-4 -7 -3 -9 4 -5 5 3 13 0 15 -6 4 -9 6 -10 6 -1 1 17
-16 25 -25 12z"/>
<path d="M2889 1043 c-12 -16 -12 -17 2 -6 9 7 20 9 24 5 5 -4 5 -1 1 6 -9 16
-11 15 -27 -5z"/>
<path d="M3209 1043 c-12 -16 -12 -17 2 -6 9 7 20 9 24 5 5 -4 5 -1 1 6 -9 16
-11 15 -27 -5z"/>
<path d="M3454 1049 c-4 -7 -3 -9 4 -5 5 3 13 0 15 -6 4 -9 6 -10 6 -1 1 17
-16 25 -25 12z"/>
<path d="M3529 1043 c-12 -16 -12 -17 2 -6 9 7 20 9 24 5 5 -4 5 -1 1 6 -9 16
-11 15 -27 -5z"/>
<path d="M1395 1020 c-3 -6 1 -7 9 -4 18 7 21 14 7 14 -6 0 -13 -4 -16 -10z"/>
<path d="M2355 1020 c-3 -6 1 -7 9 -4 18 7 21 14 7 14 -6 0 -13 -4 -16 -10z"/>
<path d="M1515 1009 c-4 -6 -5 -12 -2 -15 2 -3 7 2 10 11 7 17 1 20 -8 4z"/>
<path d="M1995 1009 c-4 -6 -5 -12 -2 -15 2 -3 7 2 10 11 7 17 1 20 -8 4z"/>
<path d="M2475 1009 c-4 -6 -5 -12 -2 -15 2 -3 7 2 10 11 7 17 1 20 -8 4z"/>
<path d="M3915 1009 c-4 -6 -5 -12 -2 -15 2 -3 7 2 10 11 7 17 1 20 -8 4z"/>
</g>
</svg>
