<svg id="圖層_1" data-name="圖層 1" xmlns="http://www.w3.org/2000/svg" viewBox="0 0 226.77 226.77"><defs><style>.cls-1{fill:#fff;}</style></defs><title>plurk</title><path class="cls-1" d="M55.21,73.53a12.08,12.08,0,0,0-10.16,5.86,11.75,11.75,0,0,0-1.71,5.87,11.86,11.86,0,0,0,.12,21A12.18,12.18,0,0,0,55.39,106a14.24,14.24,0,0,0,1.73,1.25,4.75,4.75,0,0,0-3.75,4.58A62.54,62.54,0,0,0,58.82,139c-1.83,1.7-4.84,5.16-3.06,10.61.41.89-.34.45,3.27,5.09,6.1,6.65,7.88,11.93,14.73,11.93a10.33,10.33,0,0,0,6.08-2h0A65.28,65.28,0,0,0,118.06,177c.67,0,1.35,0,2,0h.13a65.35,65.35,0,0,0,33.66-10.36,10,10,0,0,0,6.16,2.06c4.58,0,6.6-2.41,9.05-4.84,6.47-7.16,10.22-8.76,10.22-14.57a9.93,9.93,0,0,0-3-7.09,61.84,61.84,0,0,0,6.41-37.45c4.84-4.77,9.7-12.29,5.39-17-3.45-3.77-8.15-.94-10.57-.43C167.16,65,144.14,50.09,119.12,49.79h-.39c-30.62,0-54.3,22.51-53.34,29.12a12,12,0,0,0-10.18-5.38Zm.4,20.58c-4.63.09-3.93,5.75-7.73,3.71a2.35,2.35,0,0,1,.86-4.44,4.79,4.79,0,0,0,4.33-7,2.24,2.24,0,0,1,.15-2,2.62,2.62,0,0,1,4.59.29c1,2.47-2.77,3.23-1.54,7.17,1.6,5.12,7.06,2.78,11.19,2.92,1.41,0,1.57.54,1.7,1,.62,2-.56,8.14-6.36,3.92-3.57-2.14-2.95-5.47-7.09-5.47Zm62.81-34.78h.31c22.37.13,42.93,14,51.18,34.39,1.12,2.76,4.06,3.34,7,3.2-2.19,2.33-4.5,3.28-4.12,6.59h0c2.29,13.55-.08,25.77-6,35.93-3.21,5.53,2.53,8.75,2.94,9.86-.32.64-.16.19-9.16,9.42a4.56,4.56,0,0,0-.59.38c-.74,0-4.52-5.33-9.73-1.62l-.11.08a55.79,55.79,0,0,1-30.47,9.84h-.17a55.81,55.81,0,0,1-35.71-11.73A6.41,6.41,0,0,0,80,154.32a8,8,0,0,0-5.17,2.19,6.06,6.06,0,0,0-1.24.58,17.67,17.67,0,0,1-2.63-3c-1.24-1.59-2.76-3.54-4.59-5.5-.24-.31-1.35-1.71-1.53-2.06a10.94,10.94,0,0,1,1-.91c6.21-5.38,2.24-8.24-.13-15.34a22.11,22.11,0,0,0,2.4.61c10.32,2,22.82-5.83,26.69-24.75C97.8,91.15,94,77.08,85.45,72a16.09,16.09,0,0,0-1.59-.83,55.22,55.22,0,0,1,34.56-11.79ZM80.52,80.14c4.29,2.57,7.28,12.29,4.86,24.1-2.6,12.69-9.94,18.36-15.52,17.3-5.08-1-6-4.17-6.63-8.54a17.42,17.42,0,0,0-.6-2.78s-.06-.08-.08-.13c17.19,5.31,23.65-24,5-25a11.88,11.88,0,0,0-.68-3.39c5.1,4.66,8.46-4.68,13.65-1.59Z"/></svg>