<svg id="圖層_1" data-name="圖層 1" xmlns="http://www.w3.org/2000/svg" viewBox="0 0 226.77 226.77"><defs><style>.cls-1{fill:#fff;}</style></defs><title>twitter</title><path class="cls-1" d="M177.13,73.86A54.8,54.8,0,0,1,162.07,78a26,26,0,0,0,11.5-14.44A52.1,52.1,0,0,1,157,69.86a26.14,26.14,0,0,0-45.22,17.88,27,27,0,0,0,.61,6A74,74,0,0,1,58.52,66.36a26.14,26.14,0,0,0,8,34.93,25.82,25.82,0,0,1-11.81-3.22v.29A26.26,26.26,0,0,0,75.68,124a26.19,26.19,0,0,1-6.85.86,23.09,23.09,0,0,1-4.95-.45A26.4,26.4,0,0,0,88.3,142.66a52.49,52.49,0,0,1-32.41,11.15,49.5,49.5,0,0,1-6.25-.36,73.56,73.56,0,0,0,40.1,11.73c48.09,0,74.39-39.84,74.39-74.38,0-1.15,0-2.27-.1-3.37A52.19,52.19,0,0,0,177.13,73.86Z"/></svg>