<?xml version="1.0" standalone="no"?>
<!DOCTYPE svg PUBLIC "-//W3C//DTD SVG 20010904//EN"
 "http://www.w3.org/TR/2001/REC-SVG-20010904/DTD/svg10.dtd">
<svg version="1.0" xmlns="http://www.w3.org/2000/svg"
 width="1556.000000pt" height="1556.000000pt" viewBox="0 0 1556.000000 1556.000000"
 preserveAspectRatio="xMidYMid meet">
<metadata>
Created by potrace 1.11, written by Peter Selinger 2001-2013
</metadata>
<g transform="translate(0.000000,1556.000000) scale(0.100000,-0.100000)"
fill="#000000" stroke="none">
<path d="M6389 12466 c-2 -2 -49 -7 -104 -10 -55 -4 -111 -9 -125 -11 -14 -2
-52 -7 -85 -10 -238 -24 -568 -91 -822 -166 -154 -46 -414 -136 -493 -171 -30
-13 -75 -33 -100 -43 -90 -38 -387 -193 -490 -255 -162 -99 -318 -208 -450
-314 -115 -93 -125 -102 -262 -235 -433 -420 -735 -930 -867 -1464 l-28 -112
-99 -26 c-146 -38 -413 -130 -550 -190 -136 -59 -307 -143 -344 -169 -14 -10
-29 -19 -35 -21 -55 -15 -414 -263 -547 -376 -62 -53 -295 -288 -350 -353
-228 -271 -400 -573 -507 -895 -22 -66 -42 -131 -45 -145 -3 -14 -12 -52 -20
-85 -13 -53 -21 -94 -31 -160 -2 -11 -6 -33 -9 -50 -19 -101 -27 -423 -12
-555 33 -315 108 -576 235 -825 124 -242 244 -407 448 -615 381 -388 885 -675
1506 -855 65 -19 128 -37 140 -39 12 -2 51 -12 87 -21 77 -20 352 -71 430 -79
30 -4 71 -9 90 -12 70 -10 107 -13 205 -20 55 -4 111 -8 125 -9 14 -2 44 -3
66 -4 l42 -1 0 -522 c0 -288 1 -532 1 -543 1 -20 8 -20 5004 -20 l5002 0 0
417 c0 411 0 418 20 419 11 0 218 1 459 1 l439 1 186 186 c251 251 388 403
531 591 64 84 175 252 211 318 13 24 37 67 52 95 138 253 235 598 254 906 11
170 5 459 -11 551 -3 14 -7 50 -11 80 -3 30 -7 67 -10 83 -3 15 -10 55 -16 90
-51 299 -180 669 -339 973 -146 280 -315 521 -539 768 -277 306 -647 598
-1006 792 -139 76 -367 185 -438 210 -20 7 -52 20 -70 28 -62 29 -400 136
-475 151 -9 2 -44 10 -77 19 -118 30 -325 67 -455 82 -30 3 -66 7 -80 10 -155
25 -754 24 -912 -1 -13 -2 -48 -6 -79 -10 -31 -3 -66 -7 -76 -9 -36 -7 -128
-19 -152 -20 -21 -1 -26 8 -52 97 -56 186 -142 392 -231 553 -79 141 -89 157
-162 264 -557 820 -1511 1411 -2641 1639 -124 25 -151 30 -195 36 -19 3 -44 7
-55 10 -11 2 -47 7 -80 10 -33 4 -71 8 -85 11 -14 2 -56 7 -95 10 -38 3 -83 8
-100 10 -37 6 -710 15 -716 10z m526 -681 c77 -4 154 -9 170 -10 17 -2 61 -6
98 -10 38 -4 77 -8 86 -10 10 -2 42 -6 72 -10 30 -4 101 -16 159 -27 58 -11
116 -22 130 -25 89 -16 330 -83 470 -130 593 -200 1091 -515 1468 -928 76 -83
94 -105 158 -190 250 -333 411 -732 450 -1115 3 -36 7 -76 9 -90 2 -14 7 -59
11 -100 4 -41 9 -78 10 -82 1 -5 2 -26 3 -48 1 -28 5 -40 16 -40 8 0 112 27
230 60 207 57 443 112 533 124 23 3 61 9 85 12 23 3 53 7 67 10 78 12 243 19
450 18 216 -1 294 -5 390 -18 19 -3 59 -8 89 -12 30 -3 61 -7 70 -9 9 -1 54
-10 101 -19 117 -22 115 -21 210 -46 286 -72 621 -205 855 -338 66 -38 269
-164 275 -172 3 -3 35 -27 73 -53 161 -114 367 -304 521 -482 269 -309 482
-697 591 -1076 38 -132 38 -129 66 -279 18 -99 22 -127 37 -280 13 -123 5
-399 -13 -485 -2 -11 -7 -38 -10 -60 -19 -133 -80 -311 -166 -480 -39 -76
-174 -289 -202 -317 -7 -7 -19 -22 -27 -34 -38 -54 -129 -154 -288 -314 l-173
-175 -47 50 c-66 70 -162 175 -262 284 -123 136 -127 140 -220 242 -47 51 -95
104 -107 117 -95 104 -175 191 -194 213 -13 14 -67 72 -119 129 -52 57 -149
163 -215 235 -66 72 -158 174 -205 225 -47 52 -110 121 -140 153 -81 89 -101
109 -150 164 -44 48 -181 199 -235 258 -15 17 -71 77 -124 134 -53 57 -100
109 -106 115 -5 6 -32 36 -59 66 -27 30 -74 82 -105 115 -31 33 -94 103 -141
154 -47 52 -94 104 -105 115 -11 12 -63 69 -115 126 -99 110 -174 191 -225
245 -16 17 -48 52 -69 76 -70 78 -319 349 -367 400 -22 23 -34 27 -88 28 -35
1 -66 3 -70 6 -4 2 -41 7 -82 10 -41 3 -90 7 -109 10 -19 2 -69 7 -110 10 -41
4 -86 8 -100 10 -14 2 -59 7 -100 10 -41 4 -88 9 -105 11 -34 4 -141 14 -200
19 -58 4 -175 15 -215 20 -77 9 -138 15 -200 20 -36 3 -81 8 -100 10 -19 2
-66 6 -105 10 -38 3 -86 7 -105 10 -19 2 -66 7 -105 10 -38 3 -86 8 -105 10
-34 4 -84 9 -205 20 -33 4 -76 8 -95 10 -19 2 -71 7 -115 10 -44 4 -87 9 -96
10 -9 2 -56 6 -105 10 -49 4 -96 8 -104 10 -8 2 -53 6 -100 10 -47 4 -92 8
-100 10 -8 2 -53 6 -100 10 -47 4 -96 9 -110 10 -14 2 -56 6 -95 9 -38 4 -90
9 -115 11 -25 3 -72 7 -105 11 -33 3 -76 7 -96 9 -21 3 -66 7 -100 10 -35 3
-77 7 -94 9 -16 3 -73 7 -125 11 -52 4 -97 9 -100 10 -3 2 -42 6 -85 10 -44 3
-93 8 -110 10 -16 2 -64 7 -105 10 -41 3 -86 8 -100 10 -14 2 -59 7 -100 10
-41 3 -91 7 -110 10 -19 2 -64 7 -100 10 -36 3 -87 8 -115 11 -90 9 -139 14
-195 19 -30 3 -75 7 -100 10 -25 3 -70 7 -100 10 -134 12 -177 16 -210 20 -19
2 -64 7 -100 10 -36 3 -85 8 -110 10 -25 3 -72 7 -105 10 -33 4 -76 8 -95 10
-19 2 -64 7 -100 10 l-65 7 -142 -289 c-127 -258 -209 -426 -578 -1178 -57
-115 -167 -340 -245 -500 -78 -159 -191 -391 -251 -515 -60 -124 -113 -232
-118 -240 -4 -8 -15 -28 -24 -45 -9 -16 -63 -127 -121 -245 -57 -118 -173
-357 -259 -531 l-155 -316 -78 13 c-454 74 -878 222 -1208 422 -170 104 -294
200 -427 332 -154 152 -232 256 -347 461 -24 43 -106 250 -117 294 -4 17 -9
38 -11 48 -2 9 -6 27 -9 40 -46 193 -52 486 -15 677 165 854 931 1561 1980
1826 26 6 306 63 336 68 16 2 49 7 74 11 64 9 77 14 77 28 2 25 14 153 18 177
2 14 6 50 10 80 29 240 94 458 206 686 58 119 192 338 251 409 9 11 40 49 69
85 61 76 267 283 354 356 86 72 262 204 273 204 5 0 15 7 22 15 39 47 468 276
655 350 39 15 79 31 90 36 20 9 222 79 240 83 6 1 42 12 80 24 61 18 247 65
309 78 51 10 106 20 211 39 42 7 239 33 305 39 30 4 152 9 270 12 118 4 217 8
219 10 2 2 7 2 10 0 3 -2 69 -7 146 -11z m-940 -3830 c44 -4 94 -8 110 -10 27
-4 110 -12 190 -20 17 -1 68 -6 115 -10 47 -3 95 -8 107 -10 12 -2 57 -6 100
-10 43 -4 88 -8 99 -10 12 -2 61 -6 110 -10 49 -3 96 -8 104 -10 8 -2 56 -7
105 -11 50 -3 99 -8 109 -10 11 -2 51 -6 90 -9 39 -3 87 -7 106 -10 19 -2 64
-7 100 -10 36 -4 81 -8 100 -10 19 -2 70 -7 112 -10 43 -3 86 -8 96 -10 10 -2
58 -6 108 -10 49 -4 96 -9 105 -10 9 -2 52 -6 95 -10 43 -4 90 -8 104 -10 14
-3 59 -7 100 -10 41 -3 89 -8 106 -10 17 -2 62 -6 100 -10 68 -6 118 -10 212
-20 26 -2 72 -7 102 -10 95 -9 164 -16 200 -20 19 -3 69 -7 110 -10 41 -4 86
-8 99 -10 13 -2 61 -7 108 -10 46 -4 92 -8 102 -10 9 -2 55 -6 102 -10 46 -4
91 -8 99 -10 8 -2 53 -6 100 -10 47 -4 96 -8 110 -10 28 -3 118 -12 213 -21
34 -3 73 -7 87 -9 14 -2 61 -6 105 -10 124 -9 138 -13 170 -48 25 -26 225
-245 260 -283 6 -6 30 -33 55 -60 25 -27 113 -123 195 -214 83 -91 161 -177
175 -191 14 -14 57 -62 96 -105 40 -43 82 -91 95 -105 43 -46 193 -211 219
-239 90 -99 215 -235 270 -295 36 -39 90 -98 120 -131 30 -33 96 -104 145
-159 50 -54 101 -110 115 -125 14 -15 61 -67 105 -115 44 -49 89 -98 100 -110
11 -11 60 -65 110 -120 84 -94 115 -127 212 -232 67 -72 183 -199 204 -224 11
-13 44 -49 72 -79 29 -31 62 -67 75 -81 l22 -26 -2035 0 -2035 0 -58 62 c-78
84 -225 245 -362 395 -63 69 -130 142 -150 164 -19 21 -44 48 -55 60 -58 65
-217 239 -266 291 -30 33 -73 80 -95 104 -21 24 -52 58 -69 75 -16 18 -63 70
-104 115 -41 45 -90 99 -110 120 -20 21 -52 56 -71 77 -51 58 -286 313 -392
429 -26 28 -55 60 -66 73 -10 12 -46 50 -78 85 -32 35 -93 101 -134 146 -41
46 -88 98 -105 116 -16 18 -70 76 -120 131 -49 54 -119 130 -154 169 -35 38
-89 97 -120 130 -31 34 -76 83 -101 111 -25 27 -90 99 -146 159 -270 295 -313
343 -307 348 3 4 9 5 12 3 3 -2 42 -7 86 -11z m-730 -320 c17 -18 66 -72 110
-121 44 -48 94 -102 110 -120 36 -39 160 -175 194 -212 13 -15 49 -54 80 -88
31 -33 97 -105 146 -159 158 -174 327 -358 335 -365 3 -3 43 -48 90 -100 47
-52 92 -102 100 -110 8 -8 58 -62 110 -120 111 -122 162 -178 210 -230 19 -21
71 -77 115 -125 44 -49 85 -93 90 -99 6 -6 60 -65 120 -131 60 -66 112 -122
115 -125 3 -3 24 -26 46 -51 l41 -46 -1 -834 -1 -834 -1580 0 c-869 -1 -1587
1 -1595 3 -13 3 -15 117 -13 960 l2 958 146 299 c81 165 206 419 277 565 178
362 358 730 494 1008 l114 234 58 -63 c31 -34 71 -77 87 -94z m2771 -3031 c38
-42 80 -88 93 -103 13 -14 42 -46 65 -71 41 -44 225 -245 296 -324 19 -21 56
-61 83 -90 26 -28 47 -53 47 -56 0 -3 12 -13 28 -22 24 -14 219 -15 2058 -14
l2030 1 2 -80 1 -80 -2392 0 -2392 0 0 458 c0 251 2 457 6 457 3 0 36 -34 75
-76z"/>
</g>
</svg>
