<?xml version="1.0" encoding="utf-8"?>
<!-- Generator: Adobe Illustrator 24.0.0, SVG Export Plug-In . SVG Version: 6.00 Build 0)  -->
<svg version="1.1" id="圖層_1" xmlns="http://www.w3.org/2000/svg" xmlns:xlink="http://www.w3.org/1999/xlink" x="0px" y="0px"
	 viewBox="0 0 373.2 225.2" style="enable-background:new 0 0 373.2 225.2;" xml:space="preserve">
<title>林間小鎮_白槓</title>
<path d="M77.7,199c-21.6-1.3-41.1-8.2-55-19.3C7.8,167.9,0,152.2,0,134.3c0-16.4,7-32.3,19.7-44.8C30.5,78.9,45.3,71,61.5,67.1
	c3.6-17.9,14.8-34.3,31.7-46.5C111.6,7.3,135.4,0,160.4,0s48.7,7.3,67.1,20.6c15.9,11.4,26.8,26.8,31,43.4
	c6.2-1.1,12.6-1.7,18.9-1.7c52.8,0,95.7,39.5,95.7,88.1c0,23.9-13.1,38.5-29,53.9l-0.9,0.9h-21.9v20.1H81.2v-26 M305.2,209v-3.9
	h-97.9l-16.9-18.5V209H305.2z M174.1,209v-40.1l-51.8-56.6l-24.8,50.6V209H174.1z M255.7,103l79.8,87.3
	c11.9-11.1,21.4-22.1,21.4-39.9c0-39.6-35.7-71.9-79.5-71.9c-7.8,0-15.6,1-23.2,3.1l-9.2,2.5l-1.1-9.5c-1.7-15.5-11-30.1-26-40.9
	c-15.7-11.3-36.1-17.5-57.6-17.5s-42,6.2-57.7,17.6c-15.1,10.9-24.3,25.4-26,41L76,80.9l-6,1.1c-31.2,5.5-53.8,27.5-53.8,52.4
	c0,24.3,21,42.8,53.8,47.5l45.4-92.6L255.7,103z M312.3,188.9l-64.3-70.4l-107.4-10.4l73.9,80.8L312.3,188.9z"/>
</svg>
