<?xml version="1.0" encoding="utf-8"?>
<!-- Generator: Adobe Illustrator 24.0.0, SVG Export Plug-In . SVG Version: 6.00 Build 0)  -->
<svg version="1.1" id="圖層_1" xmlns="http://www.w3.org/2000/svg" xmlns:xlink="http://www.w3.org/1999/xlink" x="0px" y="0px"
	 viewBox="0 0 990 342" style="enable-background:new 0 0 990 342;" xml:space="preserve">
<style type="text/css">
	.st0{enable-background:new    ;}
	.st1{fill:#FFFFFF;}
</style>
<g class="st0">
	<path class="st1" d="M72,155.5v-72H0v-72h24v48h48v-48h24v144H72z"/>
	<path class="st1" d="M120,155.5v-144h96v144H120z M192,131.5v-96h-48v96H192z"/>
	<path class="st1" d="M312,155.5v-72h-72v-72h24v48h48v-48h24v144H312z"/>
</g>
<g class="st0">
	<path class="st1" d="M0,330.5v-144h24v24h24v24H24v96H0z M72,330.5v-72H48v-24h24v-48h24v144H72z"/>
	<path class="st1" d="M120,306.5v-72h24v72H120z M144,234.5v-24h48v24H144z M144,330.5v-24h48v24H144z M192,306.5v-72h24v72H192z"/>
	<path class="st1" d="M240,330.5v-120h24v48h72v24h-72v24h72v24H240z"/>
	<path class="st1" d="M408,330.5v-144h96v24h-72v24h72v24h-72v72H408z"/>
	<path class="st1" d="M528,306.5v-72h24v72H528z M552,234.5v-24h48v24H552z M552,330.5v-24h48v24H552z M600,306.5v-72h24v72H600z"/>
	<path class="st1" d="M648,306.5v-96h24v96H648z M672,330.5v-24h48v24H672z M720,306.5v-96h24v96H720z"/>
	<path class="st1" d="M768,330.5v-120h24v24h24v24h-24v72H768z M840,330.5v-48h-24v-24h24v-48h24v120H840z"/>
	<path class="st1" d="M888,330.5v-72h72v-48h24v120H888z M960,306.5v-24h-48v24H960z"/>
</g>
</svg>
